<svg xmlns="http://www.w3.org/2000/svg" xmlns:xlink="http://www.w3.org/1999/xlink" width="944" height="549.687" viewBox="0 0 944 549.687">
  <defs>
    <clipPath id="clip-path">
      <rect id="Rectangle_688" data-name="Rectangle 688" width="199.327" height="199.342" fill="none"/>
    </clipPath>
    <clipPath id="clip-path-2">
      <rect id="Rectangle_689" data-name="Rectangle 689" width="133.039" height="133.046" fill="none"/>
    </clipPath>
    <clipPath id="clip-path-3">
      <rect id="Rectangle_690" data-name="Rectangle 690" width="88.845" height="88.85" fill="none"/>
    </clipPath>
    <clipPath id="clip-path-4">
      <rect id="Rectangle_691" data-name="Rectangle 691" width="59.383" height="59.387" fill="none"/>
    </clipPath>
    <clipPath id="clip-path-5">
      <rect id="Rectangle_692" data-name="Rectangle 692" width="33.33" height="33.33" fill="none"/>
    </clipPath>
    <clipPath id="clip-path-6">
      <path id="Path_815" data-name="Path 815" d="M809.186,640.423c-.118.011-.118.18.057.18s.077-.182-.04-.182l-.016,0" transform="translate(-809.104 -640.421)" fill="none"/>
    </clipPath>
    <linearGradient id="linear-gradient" x1="46986.328" y1="-57477.766" x2="46991.098" y2="-57477.766" gradientUnits="objectBoundingBox">
      <stop offset="0" stop-color="#fff"/>
      <stop offset="0.136" stop-color="#f3f8e7"/>
      <stop offset="0.422" stop-color="#d4e8a9"/>
      <stop offset="0.833" stop-color="#a3ce48"/>
      <stop offset="1" stop-color="#8fc31f"/>
    </linearGradient>
    <linearGradient id="linear-gradient-2" x1="-10114.661" y1="1168.859" x2="-10109.89" y2="1168.859" xlink:href="#linear-gradient"/>
  </defs>
  <g id="Group_1902" data-name="Group 1902" transform="translate(-484.694 -341.024)">
    <path id="Path_742" data-name="Path 742" d="M618.388,501.627a27.644,27.644,0,0,0,1.406,4.21c.56,1.553,2.667,4.214,2.953,6.18s2.52,5.2,3.364,6.6a10.647,10.647,0,0,1,1.41,3.087c.134.7,1.4,1.968,2.1,2.67s1.127.986,1.268,3.229.7,6.317,1.681,7.022,2.67.986,3.093,2.527.418,2.669.841,3.375a9.471,9.471,0,0,0,4.21,4.625,17.963,17.963,0,0,1,5.759,5.2A9.372,9.372,0,0,1,647.6,553.3c.275,1.266.275,2.1,2.243,2.8s2.109,1.411,5.48.562a48.549,48.549,0,0,1,7.017-1.263c1.408-.134,2.39-.98,3.37-1.265s2.672-1.12,3.094-.7.417.145.277,1.828-.837,1.4-1.123,2.944,0,2.248-.42,2.676-3.93,4.627-4.634,6.734-.281,2.39-.984,2.949a5.684,5.684,0,0,0-1.966,2.529,12.25,12.25,0,0,1-3.368,3.933c-1.547,1.4-1.687-.143-3.654,2.806s-3.366,3.225-4.912,4.493a10.427,10.427,0,0,0-3.232,4.216c-1.263,2.384-2.525,2.107-3.651,2.8a4.692,4.692,0,0,0-2.246,2.535,7.935,7.935,0,0,1-1.265,3.083c-.424.285-.843-.978-1.543,1.828s-.986,3.087-.145,4.493a13.092,13.092,0,0,1,1.553,4.218,8.191,8.191,0,0,0,.554,2.667c.563,1.538.984,1.962,1.968,2.38s1.125.846.281,1.268-.141,2.105,0,2.67a25,25,0,0,1,.567,4.212c0,1.261,0,5.058-1.129,6.6a10.343,10.343,0,0,1-2.671,2.81c-.7.424-2.1,1.266-3.083,1.826s-.844,0-3.794,2.808-4.495,3.792-4.495,4.776a18.642,18.642,0,0,0,.7,2.95,8.214,8.214,0,0,0,.42,2.663,5.792,5.792,0,0,1,.839,2.813c-.134.56-.42,2.8-1.964,3.647s-1.259,1.828-3.647,3.23-2.67.98-2.67,1.962,1.4,0,.56,1.833a58.439,58.439,0,0,1-3.368,7.3,64.861,64.861,0,0,1-5.337,7.582c-.562.563-4.915,4.629-7.162,5.613s-3.089.989-3.513,1.413-.56.842-1.681.558a21.43,21.43,0,0,0-5.2-.139,40.314,40.314,0,0,0-5.9,1.27c-2.105.7-4.91.277-6.315-1.27s-3.093-3.234-2.105-3.792,1.257-.837,1.257-1.966-1.54-1.828-2.245-3.236-.422-1.823-1.4-3.788-3.373-5.475-4.216-7.863-.846-.56-1.687-4.636-2.806-7.3-2.247-7.863,3.37-.694.562-3.093c-2.812-2.382-3.931-6.875-5.192-10.807s-.7-9.548.839-11.655,2.951-3.651,3.372-5.055a11.134,11.134,0,0,0-.14-6.042c-.707-1.687-.982-1.4-.841-2.665a4.891,4.891,0,0,0-.85-3.23,15.139,15.139,0,0,1-1.681-2.4,3.355,3.355,0,0,1,0-1.257s1.265.279,1.406-.426,0-.978-.422-.978-.565.839-1.4-.145l-.844-.98a2.822,2.822,0,0,0-.842-1.966c-.844-.7-.986-.978-2.671-2.241s-4.491-3.937-4.491-4.922-.7-.7-.842-1.826.556-1.4.7-2.105a16.345,16.345,0,0,0,.841-2.8c0-.842-.424-1.408-.281-1.969a13.681,13.681,0,0,1,.565-1.545s-.565-.283.275-1.823,1.129-2.951.285-3.232-1.125.424-1.406-.56.422-.984-.841-1.127-.7-.281-2.252.279-1.118.565-1.96.565-1.123.426-2.25-.281-.558.986-1.123-.7-2.1-5.618-6.739-4.777a97.909,97.909,0,0,0-10.111,2.676,21.783,21.783,0,0,0-3.933,1.257,3.436,3.436,0,0,1-2.81.418,40.332,40.332,0,0,0-5.892-1.114c-1.545,0-4.779.136-5.618.7s-.283,2.67-1.969,1.687-3.087-3.089-6.036-3.513-4.214-1.121-4.912-2.243-2.814-.986-3.372-2.246.275-.56.418-1.266.42-1.121-.418-1.4-.707-2.248-1.127-2.527-.7-1.542-2.665-2.946-1.127-.565-2.107-2.113-1.683-1.265-1.966-1.685-3.234-1.823-3.37-2.8,1.121-1.268.56-2.812-.7-2.951-.283-3.65a16.655,16.655,0,0,0,1.123-2.388c.145-.417,1.687-3.933,1.687-5.057a7.965,7.965,0,0,0-.982-2.806c-.141-.422-1.4-2.808-1.4-3.935a12.741,12.741,0,0,1,.418-4.908c.7-1.973.139-.848,1.824-3.656a35.026,35.026,0,0,0,3.093-5.9c.277-.986-.848-1.27.7-2.246s1.69-.7,2.252-1.967a7.382,7.382,0,0,1,2.384-3.37c1.123-.7,2.81-1.54,3.517-1.968a10.092,10.092,0,0,0,3.5-3.368c1.545-2.248.842-2.527,1.125-4.073s-.984,0,1.545-4.354,3.931-3.511,5.334-5.2,2.386-3.232,3.091-4.212.143-1.683,1.545-1.406,1.544,1.265,3.087,1.265,0,.141,3.937.141,6.459-2.109,11.8-4.073a27.385,27.385,0,0,1,11.515-1.261c1.544,0,3.645-.844,6.881-.844s3.792-1.121,5.055.138,1.261.562,2.1,1.265.98,1.121.42,1.962.989,1.971-.281,3.232a4.431,4.431,0,0,0-.982,3.649c0,.844-1.542.989,3.513,2.533s7.584.7,9.124,3.228,6.6,3.087,7.448,3.511,0,4.917,3.228,1.683,1.821-5.893,2.806-6.317,4.917-.422,9.408,1.259,6.741,2.256,9.551,2.111,5.616,1.265,6.881.7a9.093,9.093,0,0,1,5.475-.277c1.547.562,1.685,1.406,1.685,4.073" transform="translate(0 114.776)" fill="#deddca"/>
    <path id="Path_743" data-name="Path 743" d="M576.937,565.07c1.054-.211,1.681.209,2.426-.1s.833-.949,1.151-.949.532.529,1.053.529.529,0,.846-.424.1-.215.846-.63.945-.108,1.05-.846-.1-.42.42-1.263a10.436,10.436,0,0,1,.844-1.367,1.665,1.665,0,0,0,.42-1.371c0-.63-.42-.738.211-.947s.842-.207,1.259-.74.319-.209.74-1.265.738-1.468,1.053-1.578.529.424,1.367,1.16,1.373.316,1.476,1.683-.1,1.9.527,2.634.108,2.111.312,2.634.85,1.158.217,1.474-.736.53-1.055.422-.626-.949-1.053-.422a1.457,1.457,0,0,0-.422,1.371,3.766,3.766,0,0,1,.318,2c-.209.839.1.943-.521,1.477s-.635.418-.846.837.527,1.373.211,2-.844-.42-1.158,2.634-1.055,3.792-1.369,5.163a39.818,39.818,0,0,0-1.053,4.212,8.216,8.216,0,0,1-1.055,3.581,9.674,9.674,0,0,0-1.059,3.372,1.7,1.7,0,0,1-1.677,1.371c-.846,0-1.052-.312-1.789.206s.624,1.367-1.687.523-2.949-1.683-3.159-2.314a9.661,9.661,0,0,1-.844-2.63c0-.846.422-.527,0-1.692s-.633-.206-.947-1.468-1.158-1.16-.525-2.531a16.621,16.621,0,0,1,2.105-3.891,4.558,4.558,0,0,0,1.369-2c.209-.738-.42-1.264-.42-2.111a6.985,6.985,0,0,0-.738-2.735c-.316-.529-.74-.215-.635-1.687s-.314-.947.424-2.314a7.675,7.675,0,0,0,.841-2Z" transform="translate(73.963 177.999)" fill="#deddca"/>
    <path id="Path_744" data-name="Path 744" d="M594.34,568.246s-.035-.092-.1-.24c-.162-.462-.483-1.439-.325-1.76.213-.419.529-1.373.732-.732a2.561,2.561,0,0,1,.319,1.367c0,.842-.1,1.257-.631,1.366" transform="translate(91.208 187.352)" fill="#deddca"/>
    <path id="Path_745" data-name="Path 745" d="M591.888,568.992c-.4.134-.631,0-.736-.635s.527-1.048.736-.63.635,1.055,0,1.265" transform="translate(88.922 189.241)" fill="#deddca"/>
    <path id="Path_746" data-name="Path 746" d="M628.944,533.213c-2.593-1.731-2.654-2.25-2.043-4.093s0-.615.611-3.261c.611-2.665,0-3.891,1.022-3.274a5.28,5.28,0,0,1,2.863,3.067c.82,2.039,1.23,2.452,1.23,3.678a4.585,4.585,0,0,1-1.022,3.061c-.62.613-2.048,1.228-2.661.822" transform="translate(118.529 151.54)" fill="#deddca"/>
    <path id="Path_747" data-name="Path 747" d="M650.027,529.043c0-.646.82-1.632,3.884,0s1.635,1.226,4.3,3.474c2.645,2.245,1.628-.822,4.695,3.474s6.33,4.9,9.6,7.558,3.68,1.633,4.093,4.093a37.3,37.3,0,0,0,1.835,5.717c.4,1.432.207,3.474-.611,4.089s-2.661,1.428-4.088,0-1.433-2.658-5.519-5.313-5.932-2.865-6.128-5.313a7.548,7.548,0,0,0-1.234-4.295c-1.017-2.046.415-1.432-1.837-3.267s-1.63-2.454-3.676-4.291-1.228-2.452-2.659-3.071a5.47,5.47,0,0,1-2.654-2.856" transform="translate(138.115 156.321)" fill="#deddca"/>
    <path id="Path_748" data-name="Path 748" d="M670.633,541.738c.206-1.222.206-.609,3.271-1.837s3.07-1.633,4.086-2.652,3.472-1.637,4.9-3.074,1.228-1.224,2.043-1.224,2.048-1.424,2.867-2.45,4.291-4.7,4.9-3.676.815,2.043,1.634,2.247,2.044,1.23,1.021,2.252-1.637-.207-2.037,2.656-.415,4.493.608,5.715,3.678,1.435,1.839,2.254-4.289,5.313-4.289,5.313.409.206-.613,2.245-.413,1.843-1.841,3.269-2.25,2.659-3.067,1.841-.611-1.428-2.045-1.428h-2.65c-2.25,0-2.869.609-4.3,0a3.666,3.666,0,0,1-2.246-1.632c-1.021-1.235-1.836-.822-2.654-3.478s-1.028-3.272-1.028-3.272-.406-.2-.609-1.426.2-1.641.2-1.641" transform="translate(155.11 155.064)" fill="#deddca"/>
    <path id="Path_749" data-name="Path 749" d="M665.3,547.042s-2.454-2.446,3.267-1.626,4.295,2.247,6.953,2.45,3.271-.411,4.9-.411,4.5.411,5.928,1.641,2.858.813,2.45,1.424-2.245.617-4.9.411a51.292,51.292,0,0,0-5.719-.2c-3.067,0-4.091-.824-5.932-.619a8.807,8.807,0,0,1-4.691-1.019,26.342,26.342,0,0,1-2.254-2.054" transform="translate(150.434 170.602)" fill="#deddca"/>
    <path id="Path_750" data-name="Path 750" d="M714.77,561.889c4.286,3.68,6.743,4.5,6.743,2.66s-1.431-2.861,0-4.291,1.23-2.454,3.471-3.473,2.45-1.229,3.065-1.837,1.228-1.432,4.295-.407,5.926-.617,6.334,1.222,0,4.495-.615,4.9-6.128,1.02.207,3.267,5.108,1.435,6.338,2.252.4,1.432,1.631,2.45-2.246,1.433,1.635,1.433,5.315.609,5.315-1.844-.208-8.782.2-11.44.407-6.541,1.43-3.472,4.7,5.922,5.521,7.147,2.861,1.43,2.861,4.91.2,6.534,4.087,10.83,7.969,3.678,9.608,6.951,4.495,6.74,4.9,8.371a69.566,69.566,0,0,1,2.654,10.219c1.022,5.928-1.226,11.036-3.884,15.127s-1.839,2.039-3.473,6.334-.817,5.1-3.065,6.741-4.289,1.43-5.924,2.861-5.523,3.882-6.13,2.661.813-1.639-1.23-1.232a16.755,16.755,0,0,1-8.171-.609c-3.274-1.022-3.885,1.834-4.7-1.843s-1.026-3.882-1.432-4.7-1.024-.811-2.248-3.063a14.764,14.764,0,0,1-1.839-4.906c0-.611.2-4.087-.407-3.674s-2.86,3.882-3.476,4.293.617,2.243-1.226,1.021-.613-1.228-2.043-2.456-.411-1.022-2.859-2.858-8.173-3.478-9.2-3.478,2.25-.4-1.02,0-4.295,0-6.336.819-4.7,1.224-6.135,1.839-1.835,2.252-4.086,3.478-2.246,1.428-5.521,1.428-3.471,0-5.308.813.407,0-4.095,1.433-4.9,1.637-6.123.617-4.908.609-4.089-2.254.611-6.943.206-10.62.406-5.523-1.024-8.382-1.835,1.022-2.245-5.725-2.044-5.11-.409-8.782-1.23-4.3,4.291-5.319,6.95-3.06,8.991-4.489,8.173-.417,9.608-3.067.2-4.089,1.22-4.706-.817,1.231,2.047,0,3.471-2.246,4.9-3.673,1.232-1.435,2.048-2.25,2.448-2.659,4.293-1.23" transform="translate(160.021 176.398)" fill="#deddca"/>
    <path id="Path_751" data-name="Path 751" d="M730.94,600.23c-.815,1.43-1.628,1.637-3.669,1.637s-3.274-2.658-3.685,1.222-1.424,5.313.411,6.951,3.472,3.885,5.312.819,2.252-2.25,2.252-5.117a27.411,27.411,0,0,0-.62-5.512" transform="translate(199.021 216.533)" fill="#deddca"/>
    <path id="Path_752" data-name="Path 752" d="M753.355,621.635a8.611,8.611,0,0,1,2.448-4.7c1.637-1.432,0,.819,3.478-3.271s4.286-2.247,6.539-5.725,1.632-4.491,2.449-4.9,2.048-3.676,2.658-2.045,2.45,1.028,2.45,2.252,2.25,2.043,0,5.313-5.31,6.334-6.126,7.562-1.434,2.248-2.861,4.087-1.839,2.452-3.678,2.658-3.478-.407-5.11-.407a2.775,2.775,0,0,1-2.246-.82" transform="translate(224.432 216.79)" fill="#deddca"/>
    <path id="Path_753" data-name="Path 753" d="M766.547,606.776c0-2.924,2.25-3.269,1.637-5.928s-2.663-7.966-3.476-8.786-3.271-3.472-1.024-1.837,2.248,1.226,3.473,4.086.82,1.633,2.659,3.271.819,2.654,2.45,2.654,1.23,1.026,2.254,0,2.452-2.248,2.654-.82,1.226,3.884-.2,5.112-2.861,1.839-3.476,3.678-1.839,5.11-2.461,5.726c-.6.607-1.832,1.02-2.039,0a15.832,15.832,0,0,1,0-3.069c0-1.222,0-2.252-.609-2.452s-1.839-.406-1.839-1.634" transform="translate(232.288 207.739)" fill="#deddca"/>
    <path id="Path_754" data-name="Path 754" d="M707.791,547.055c-.286.7-.631.213-1.476-2.735a10.489,10.489,0,0,0-2.105-4.216c-.633-1.052-1.9-1.052-.633-1.9s3.583-1.683,4.634-.628-.42,3.366,3.366,4.638,5.481-.641,6.954-1.477-.426-2.949,4.214-.635,8.85,2.948,11.8,4,2.951.217,6.316,2.74,5.056,1.476,5.69,3.373-.426.42,1.054,3.375,1.054,4.412,2.316,5.679,5.684,1.476,6.112,2.95-.635,2.322-2.322,2.107a14.191,14.191,0,0,1-6.738-2.529c-2.107-1.683-2.95-2.1-4.427-3.37s-5.049-3.366-5.686-2.527-2.315,3.583-2.948,4-4-.418-5.69-.846-6.738-2.1-7.371-1.678-2.109.626-1.055-1.263,2.744-3.8.637-5.479-.844-2.107-3.792-2.529-1.689-.841-4.218-1.265-3.792-1.892-4.631.211" transform="translate(182.397 163.784)" fill="#deddca"/>
    <path id="Path_755" data-name="Path 755" d="M688.094,519.916c-.848-1.125-1.968-2.243-1.694-4.2.288-1.968-.558-4.5.567-5.06s2.239-1.4,3.085-1.123,1.971.562,1.971,1.971v3.364c0,2.531,0,3.652,1.121,4.491s.842-.279,2.248,1.969,1.679,2.806.562,2.246-.841-.844-2.529-.844-1.687,0-2.527-.839a8.722,8.722,0,0,0-3.093-1.406" transform="translate(168.465 140.717)" fill="#deddca"/>
    <path id="Path_756" data-name="Path 756" d="M686.875,516.694s2.1.14,2.4.843c.27.7,1.536,1.264.831,1.688s-.7.837-1.261.281,0-.42-.841-.984-1.4-1.125-1.125-1.828" transform="translate(168.836 146.75)" fill="#deddca"/>
    <path id="Path_757" data-name="Path 757" d="M689.883,528.371c-.218-1.11-.7-2.107.424-2.246s2.663,1.545,3.79.418.42-.978,1.685-2.1,1.685-2.384,2.386-1.683a4.728,4.728,0,0,1,1.689,2.384c.139.984.839,2.8.42,3.23s-1.125-1.964-1.547-.283.143,2.109-.42,2.953-.283,2.243-1.543.984-1.408-.7-1.547-1.689-1.823-1.263-1.823-1.263-1.127-.986-1.826-.424-1.545.424-1.687-.279" transform="translate(171.165 151.645)" fill="#deddca"/>
    <path id="Path_758" data-name="Path 758" d="M688.669,535.67c.631-.943.7-.841,3.507-.42s6.325.986,7.024.42,2.112-2.529,2.245-1.263-.56,2.525-3.23,2.525-5.473.277-7.721.426-2.392,2.663-1.824,3.649,1.549.143,2.533-.138,3.225-1.123,2.659,0-3.225-.987-2.248,2.107,4.5,5.75,4.22,6.74-2.529,3.651-3.511,1.121-1.406-4.493-2.1-4.64-1.27-3.091-.987,1.129,1.406,3.792,0,4.772-1.962,2.953-1.962.562.98-2.667-.143-3.509-1.969.143-2.111-2.105-1.4-1.824-.14-2.806,1.547.563,1.832-2.107a21.672,21.672,0,0,1,.562-3.651,7.218,7.218,0,0,1,1.4-2.812" transform="translate(166.763 161.198)" fill="#deddca"/>
    <path id="Path_759" data-name="Path 759" d="M672.4,504.973c-1.309,1.736,1.542,3.085,1.118,3.223s-3.093-.279-3.372.848-1.96,3.085-.14,3.647,2.81-.279,3.935-1.266,2.812-1.821,2.382-3.229c-.413-1.4,0-1.679-1.4-2.382s-1.116.141-1.4-.7-.7-.714-1.118-.141" transform="translate(154.107 136.572)" fill="#deddca"/>
    <path id="Path_760" data-name="Path 760" d="M687.535,506.894c-1.232-1.973-2.806-2.808-1.123-4.214s1.826-2.245,3.23-2.95,2.527-2.949,2.667-1.685-1.121,3.091-1.121,4.634.279,3.511-.56,4.076-2.39,1.259-3.093.138" transform="translate(167.897 130.855)" fill="#deddca"/>
    <path id="Path_761" data-name="Path 761" d="M700.561,487.012c-.42-.279-1.687-1.118-.143-1.545s4.633-2.107,4.917-1.544,1.288.8.857,3.465-.435,5.242-1.419,5.242-1.969.279-1.969-1.4a9.121,9.121,0,0,0-.558-2.856c-.145-.841.139-2.2-.285-1.78a2.4,2.4,0,0,1-1.4.42" transform="translate(179.588 119.279)" fill="#deddca"/>
    <path id="Path_762" data-name="Path 762" d="M705.781,488.353c-1.835,0-3.258-1.988-.6-3.26s5.747-2.9,6.027-.936-1.521.916-2.223,1.479-2.65,2.716-3.208,2.716" transform="translate(182.965 118.807)" fill="#deddca"/>
    <path id="Path_763" data-name="Path 763" d="M702.785,494.323c.442,0,2.669.558,4.074-.422s7.015-2.527,7.582-1.683,0,2.663.418,3.227,1.824-.422,2.245-1.259-.694-2.39,1.547-1.968a5.48,5.48,0,0,0,3.79-.7c.565-.141.281-.846.565-.141s0,1.121.973.141c.991-.987,1.692-2.951,1.832-1.824s-1.259,2.384.562,1.406,1.975-1.834,1.975-2.814a7.518,7.518,0,0,1,.413-2.812c.281-.411.563-.556.563-2.524s-.7-2.524,0-2.808.279-.143,1.259-2.245,1.833-1.41,1.132-2.955-.987-1.824-.987-2.661a2.984,2.984,0,0,0-.986-2.109c-.419-.281-.277-.141-.7.422s-.136-1.41-.978-.141a5.98,5.98,0,0,0-1.411,3.788c0,1.683.43,4.495-.7,6.042a16.8,16.8,0,0,1-4.21,4.069c-2.111,1.549-3.511,2.808-3.511,1.687s1.257-1.4,1.257-2.247-.564-.842-1.257.418-.562,2.39-1.408,3.238-1.121.837-3.511,1.817-4.77.281-5.9.7-2.105,2.109-3.085,2.67-1.826.562-2.109.987-.281.7.564.7" transform="translate(181.576 107.757)" fill="#deddca"/>
    <path id="Path_764" data-name="Path 764" d="M718.062,474.976c-.321.479-1.261,0-1.547.422s-.56,2.248-.7.562a34.663,34.663,0,0,1-.285-3.792c0-1.683.145-1.96,1.406-2.669s.839.708,1.683-1.263a8.665,8.665,0,0,0,.98-3.509c0-.7-.138-2.245.424-2.529a2.137,2.137,0,0,1,2.529.844c.422.982.279,2.669,2.808,2.806s2.808-.138,3.227,0,.707,1.69,1.131,1.967,1.676.986.98,1.547-2.529.98-4.212,2.105-1.83,3.788-2.812,3.091-.558-1.123-2.391-1.4-3.083,0-3.366-.426-.98-.562-1.12.284,1.54,1.545,1.261,1.962" transform="translate(192.838 101.121)" fill="#deddca"/>
    <path id="Path_765" data-name="Path 765" d="M719.049,447.5c.551-.441.85-.565,1.268-2.109s-1.268-6.178.7-3.651.982,7.02.982,8.145.562,10.669,1.547,12.075,2.951,4.21,2.1,3.234-1.821-2.95-2.665-.707-2.388,4.073-2.247,5.618,1.547,4.632,1.547,5.2-.707-.846-1.547-.846-.56.565-1.261,1.127-1.127,2.808-.989-1.265.284-8.426.56-10.953,1.406-7.02.567-8.848-1.4-2.808-1.4-3.93.138-2.527.835-3.089" transform="translate(195.076 83.521)" fill="#deddca"/>
    <path id="Path_766" data-name="Path 766" d="M727.14,666.76c-1.433-1.637-2.456-6.741-6.749-14.509S717.33,638.56,717.33,635.7s0-2.45-.407-3.267-1.232,1.022-1.839,2.043a2.2,2.2,0,0,1-3.067.819,10.981,10.981,0,0,1-3.065-1.839c-1.02-.817,0-1.639.406-2.454s1.432-1.231,1.641-1.837-.617-.209-2.254-.209-.815,0-3.471-.813-.611-1.024-4.089-3.684-2.245-1.426-4.7-1.426-2.659,1.022-8.792.609-1.839-.609-8.988-2.248-1.839-.2-3.478-2.039-1.021-.817-2.452-1.02-2.861.611-6.332.2-1.43,0-4.289-2.046a10.039,10.039,0,0,1-3.885-6.126c-.413-1.435-4.085-1.435-4.906-1.847s-1.634.824-2.043,1.639.613.817.613,1.633a23.346,23.346,0,0,0,2.25,5.927c.609.82.817.617,2.246,2.454s1.839,1.632,2.45,1.43,1.228.817,1.43,2.659.413,1.224,1.433,1.224,4.085-.206,5.519-.407,2.861-1.843,3.884-2.659a25.1,25.1,0,0,1,2.45-2.041c1.226-.82.406,1.017.406,1.632s-.608,2.45-.608,3.68,2.852.817,4.089,1.43a12.067,12.067,0,0,1,3.674,2.867c1.02,1.222-.617,2.448-1.839,4.491s-.209,1.841-1.228,2.658a17.787,17.787,0,0,0-2.654,3.065,25.865,25.865,0,0,1-7.565,6.543c-3.68,1.835-1.839.2-3.882,1.835s-4.9,1.836-6.949,2.658-2.248,1.428-6.33,2.861-6.75,3.678-10.423,2.856-1.641-1.632-2.25-3.061a10.983,10.983,0,0,1-1.226-5.314c-.206-3.476-1.637-1.637-3.267-3.672a57.816,57.816,0,0,1-5.93-9.61c-2.047-4.087-.206-2.656-1.024-4.5s-3.471-4.087-4.7-5.926-2.454-4.7-4.908-8.378-1.837-2.25-2.037-3.88-1.026,2.454-2.047,2.659-2.248-4.906-2.248-7.364.817-2.245,1.841-3.069,1.228-2.037,2.248-3.465a32.106,32.106,0,0,0,2.657-5.93c.817-2.041,1.224-7.356,1.224-7.356a17.535,17.535,0,0,1-2.041-1.026c-.62-.4-1.026,0-2.861,0s-2.252,1.026-3.274,1.234-1.428,0-3.471-.413-1.028-.613-2.046-1.021-.407.407-1.02,1.434-2.863,0-4.7-.413-1.23-1.426-2.045-2.45-.613-.206-1.428-.411-.411-.613-1.226-2.243a10.327,10.327,0,0,1-1.024-3.476c-.2-1.019.409-1.843.611-3.269s-.815.407-.611-.615,1.428-.407,4.493-.822,3.684-1.022,4.91-2.037,5.106-2.045,6.947-3.063,4.289-.615,5.721-.615,3.271,1.839,4.9,2.656,2.863,0,5.106,0,4.7-.206,6.132-1.022,1.226-2.246.617-4.084-3.474-3.48-4.908-5.319-5.1-3.273-5.925-4.7,1.224-1.43,1.841-1.841.4-1.022.4-2.045.82-1.015,1.432-1.634-.2-1.019-1.226-.611a29.294,29.294,0,0,1-4.7,1.024c-2.248.4-1.832,1.022-4.086,1.632s0,1.022.617,1.839,1.019.611,2.86,1.428-.613,1.024-2.247,1.432-1.23.819-2.656,1.019-.411-1.63-3.069-2.858.817-1.02,1.633-1.633.408-1.226-3.065-1.835-.817-.817-2.245,1.015-2.658,1.639-3.68,2.861-3.474,2.046-4.087,4.7a17.681,17.681,0,0,1-2.25,5.113c-.407.817.411,2.45.82,3.067a11.368,11.368,0,0,1,2.043,3.267c.411,1.432-3.68-.2-4.7-.2s-1.022.409-2.246.608-1.222-.2-2.043-.4a4.161,4.161,0,0,0-2.656.206c-1.428.406-1.428.607-3.276,2.037s-1.226.415-2.039-.609-.406.609-.406,1.839.406.817,1.02,1.634.609.824-.207,1.637,0,.407.207,1.228,1.226,0,2.041.409,1.022.815,1.432,1.837.409,2.248-1.633,1.837-.824.613-.824,1.228.409,1.837.409,2.659-1.833,0-2.854-1.026,0,0-2.454-.407-.208-1.02-.817-2.043a4.221,4.221,0,0,1-.821-2.041c-.2-1.022,1.021-.207,3.68.2s2.039,0,2.039-.611-.608-.407-3.063-.609-2.656-.619-3.467-1.841-1.435-1.433-1.639-2.246.409-1.228.409-1.843-.409-1.428-1.634-2.659-.411-2.245-.82-3.472-2.25-2.041-3.674-2.448-1.637-1.226-2.047-2.248-1.224-1.226-2.656-1.428-.618.2-1.228-.824a6.871,6.871,0,0,1-1.226-3.061,7.981,7.981,0,0,0-1.428-3.271c-.617-1.021-1.02.613-1.837,1.632s-1.23-.206-1.435-1.019.206-1.021,0-2.043-1.019.2-2.247.611-.617,1.23-.409,2.861.206,1.428,1.43,3.474,2.25,4.291,3.067,5.111a8.2,8.2,0,0,0,4.085,1.839c1.021,0,.609.206,1.43,1.633s.82,1.022,2.047,1.635a18.38,18.38,0,0,1,2.656,1.837,2.794,2.794,0,0,1,1.022,2.454c0,1.228-1.224-.407-1.839-1.43s-1.022-.613-1.839-.415.2,1.23.2,2.458-.2,1.637-.2,3.271-1.43,2.652-1.843,3.682-1.634,0-1.432-1.435,1.228-1.635,1.228-2.859-1.024-2.658-2.656-4.7-6.539-3.887-8.171-4.7-1.637-2.858-3.272-4.289-1.024-1.639-1.841-3.274-3.267-1.426-4.289-1.224a16.445,16.445,0,0,0-6.339,2.25c-3.065,1.839-1.634,0-4.289,0s-2.452.2-3.882,1.02-1.43,2.66-1.43,4.7-1.639,2.041-3.884,3.469a8.826,8.826,0,0,0-4.087,4.495c-1.224,2.456.817,1.433.407,2.865s-1.021,1.022-1.839,2.246-1.224,1.837-2.658,2.248-.613,1.637-2.45,2.654-3.678.615-4.9.615-2.656.207-2.856.819-1.23.206-1.641-1.434-1.222-1.22-2.859-1.22-1.226.809-3.271,0-1.639-2.048-1.639-3.276,0-1.019-1.02-1.428-.407-.815-.407-2.656,0-2.25.82-3.271a5,5,0,0,0,1.224-2.247c.2-.817-1.022-4.495-1.637-6.334s.413-2.661,1.43-2.861,1.432-1.024,2.454-1.633,2.863.4,3.884,1.022a11.945,11.945,0,0,0,6.336.611,26.6,26.6,0,0,1,4.7-.611c1.222,0,1.632-1.022,2.246-1.433s.613-2.861.817-5.312.615-.819.615-2.252-.615-1.428-.615-1.428a42.231,42.231,0,0,1-3.063-4.086c-.2-.615-2.654-1.637-3.682-1.637s-1.221-.407-2.041-1.224-.611-.82-.822-2.043,1.026-1.232,2.863-1.232a12.921,12.921,0,0,1,4.9.615c1.637.617,1.432,0,1.228-.615s-1.228-2.656-1.022-3.473,1.432,1.022,1.432,1.022a19.242,19.242,0,0,0,2.858-.206,4.706,4.706,0,0,0,2.66-2.248c.615-1.02,1.433-1.02,2.447-2.245s.209-1.635,1.641-2.043a4.528,4.528,0,0,0,2.656-1.633c1.022-1.022,1.428-.411,2.247-.615s.82-1.432.206-1.843-.407-1.428-.206-2.861,1.024-.611,1.641-.611.4,1.022,1.024,2.045.813.406,1.43.207.2-1.23-.413-2.052a3.368,3.368,0,0,1-.617-1.833l2.248-.82,1.637-.2,2-2.336c1.055-.418,0,0,1.788.108s1.9.319,2.107-.527,0-.841-.422-1.261a1.356,1.356,0,0,1-.42-1.16c0-.422-.525-.74-.843-1.052s-.1-.525.211-2.322-.211-.841-.633-1.156-.312-1.052.215-1.47-.631-1.477-.846-1.9,1.164-1.793,1.477-2.107,1.793-1.057,2.417-1.578a2.9,2.9,0,0,1,2.006-.531c.63,0,.525.74,1.05,1.474s1.16.53.842,1.477-1.892,1.162-2.421,1.789a5.54,5.54,0,0,0-1.79,3.16c-.635,2.318.106.947,1.367,2.951s2.215,1.681,2.215,1.681a2.6,2.6,0,0,1,.418,1.052c0,.426.318.426,1.263.525s0,0,3.265-1.577.846-.418,3.164-1.158.1.318,0,1.582.947,1.365,2.21,1.153,5.055-2.417,5.9-3.153,2-.631,3.994-.844.635.525.954,1.789,0,0,3.478-.314.1-2,1.259-2.74,2-2.843,2.109-6.22,1.788-4.737,4.739-6.945.527.846,1.476,2.109,3.052,3.054,4,1.577-.633-5.787-1.158-6.319-.843-.525-1.265-1.371,0-1.367-.207-2.314a1.747,1.747,0,0,1,1.156-2.105c.949-.419,0,0,.527-.419a17.944,17.944,0,0,1,4.425-1.479c2.313-.631.417.1,3.685,1.261s2.107-.312,2.946-.73a4.027,4.027,0,0,1,2.215-.53c.947,0,1.367-.422.947-.734a8.086,8.086,0,0,0-2-1.266c-.525-.1-.106-.842-1.474-3.263s-1.265.418-2.1,1.052-1.582.321-3.9.947-4.429.846-5.587,1.472a5.18,5.18,0,0,1-3.788.325c-1.369-.325-.53-.951-2.107-1.8s-2.316.11-2.316-1.58.947-4.419,1.158-7.264,0-1.789-.318-2.634a3.907,3.907,0,0,1-.316-2.738c.316-1.16.949-.734,2.107-.949s.947-.525,1.367-1.369.209-.736.529-1.158.316-.426,1.263-1.683.527-.631,1.053-1.156a18.1,18.1,0,0,1,1.791-1.584c1.263-1.054.734-1.265,1.788-2.109s.426-1.05,1.263-2.208.213-.736.319-1.789.312-1.265-.951-2.849-.736-.106-1.265-.314a5.682,5.682,0,0,0-2.316.108,5.386,5.386,0,0,1-2.735.1c-2.214-.207-.53.106-1.685.321s-.844.841-1.263,1.472a1.646,1.646,0,0,1-.844.736s.314,3.586.422,5.06.207,1.16-.635,1.89-2.948,2.849-3.577,3.373-1.055.107-1.685,0-2.107,1.054-2.107,1.054-1.053,3.265-1.053,3.689.1.314-.74,2.628-1.371.422-1.371.951a4.033,4.033,0,0,1-.207,1.791c-.319.943.42,5.792.42,5.792a4.548,4.548,0,0,0,1.575,1.793c1.059.626.852.736,1.059,1.681s.736,1.476.736,1.9-.419.738-.631,1.05a7.842,7.842,0,0,1-1.689,3.164c-1.47,1.681-.316-.85-.316-1.793s.745-1.265.424-1.789-1.265.106-1.578.213-2.109.525-2,.949.837.732,1.58,1.791.209,1.154,0,2-1.479,1.156-1.371,1.9a52.585,52.585,0,0,1-.209,5.267c-.11,1.47.42,1.364.736,1.89a7.2,7.2,0,0,1,.211,2.426s-1.369.736-1.687.314-.525-.736-1.158-.314-.945,1.055-1.9,1.472-.74.532-1.681,1.369a1.709,1.709,0,0,0-.738,1.8c0,.521-.635,1.154-2.949.839s-.528-.527-.63-2-1.164-1.582-1.164-2.529.633-.631.732-1.153-.415-1.371-1.784-2.533-.316-1.367-.846-3.579-.42-1.053-.736-2.845-.53-.42-.949-1.16a19.007,19.007,0,0,1-1.263-3.9c-.316-1.364-.1-2.735-.523-2.735s-.318,1.578-.635,2.316a13.155,13.155,0,0,1-1.053,1.793c-.31.525-1.368-.106-1.368-.106s-.527.209-.734,1.156-.954,1.162-1.69,2.424-3.157,1.791-3.9,1.577a6.557,6.557,0,0,1-2.312-1.05,13.4,13.4,0,0,1-2.105-2.109.85.85,0,0,1,.215-1.261c.415-.319.312.736.947.943s.523-.1.734-.943-.318-.846-.318-1.481.211-.525.106-1.257a4.208,4.208,0,0,0-.63-1.582c-.314-.633.106-.945.734-1.789s.734-.945,1.266-1.577,0-.529-.743-.319a4.641,4.641,0,0,1-1.683.209c-.732,0-.841-.316-1.156-.947s.1-.945.424-1.683,1.788-.736,2.524-1.055-.207-.734-.631-.631-1.263.738-2,.738-.422-.529-.422-1.261-.1-.639-.1-1.376.839-.527,1.156-1.364-.633-.631-.949-.846-.63,0-.63-.738.835-1.05,1.786-.628,1.055.1,1.894-.106.42-.633.846-1.367,1.687-.424,2.423-.633,2-1.795,2.423-2.206,0-1.162.74-2.639.833,0,.943-.635,1.789.108,2.847.745.841-.11,1.261-.745,2.423-1.685,2.316-2.1-1.683-1.156-2.1-1.156-.53,1.156-1.685,1.575-.951.108-1.16-.312,0-.947.209-1.578,1.055-.529,1.58-1.265,1.055-2.32,1.685-2.634.949-1.367,3.054-3.37-.1-.949-.1-1.265.74-.319,1.367-.529.209-.422,1.053-3.476.74-1.156,1.894-.418,1.16-.529,1.27-1.371-2-.42-2.535-.525,0-1.052.743-1.9.943-1.474,1.791-2,1.263-.417,3.579-.525,0-.529-.42-.844-1.373-.316-2-.738.734-.527,2-.206,1.05-.424.837-.846a1.929,1.929,0,0,1-.1-1.9c.418-.842-.318-.628-1.268-.525s-.738-.422-.525-.74,1.892-1.683,2.634-2.318.628.949,1.053,1.58.631-.422.734-.736a2.681,2.681,0,0,1,1.476-1.366c.738-.215.211-1.158-.106-1.474a.961.961,0,0,1,0-1.268,4.827,4.827,0,0,1,1.687-1.156c.529-.209.628-1.265.736-1.9s.211-.63.321-1.472.1-.635.418-.947,1.679,0,2.419.418.633.319.841-.106-.308-.839.108-2.1.209-1.476,1.055-1.578,1.261.418,1.681,0a3.7,3.7,0,0,1,3.16.1c.74.529,1.055.316,1.055.316a8.7,8.7,0,0,0-.106-1.265c-.1-.628-.42-.628-.949-.947s-.736-.629-.418-1.265,1.793,0,2.421.213a20.185,20.185,0,0,1,2.951,2.421s0-.947.1-2,.42-1.586,1.789-2.843.635-.743.846-2.109.844-2.318,1.259-2,.217,1.046.639,1.156.316-.635,1.371.213-1.055,1.261-1.481,2.107,0,2.634.11,3.474.734.629.947-.316-.106-2.322,1.156-4.32,1.054-1.268,1.892-1.793.106,1.055,0,1.9a4.926,4.926,0,0,0,0,2.109c.215.839.633.107,1.268-.525s.422-1.472.422-2.533v-1.578c0-.42,1.476-.527,1.9-.63s1.05.525,1.158,1.048-1.055,1.16-1.265,2.006.106,1.265.525,1.367.844-.523,1.055-1.153.418-1.16.525-1.582.525-.529,1.478-.209,1.05.839,1.577,1.367a7.5,7.5,0,0,0,2.318,1.577c1.58.844.631.951.418,1.476s-1.052.527-1.683.74.844,1.789-.424,2-2.1-.949-3.05-1.584-1.053-.106-1.268.319.215,1.052,1.268,1.265,1.048.525,1.478,1.05.523.842.943,1.371.842-.213,1.685-.633.949-.211,1.58-.1.422,1.05.947,1.156,1.055-.631,1.055-1.683.631-.844,1.369-.418.521.523,1.259.945.53,1.9.213,2.208-1.268-.312-2.318.213,0,.422.213.846.633.312,1.366.631.321.1,1.479.1.312.319,1.685.639.527,0,1.369-.213a14.147,14.147,0,0,1,2.948-.316c1.687-.11,1.158.316,1.577,1.055a8.945,8.945,0,0,0,2,1.892c.742.631,3.093,2.454,3.368,2.878s.5,1.059.916,1.2.984-.639,1.544-.639.422.846,1.127,1.683.424.776,1.333,1.129.211-.141.7-.284.565.072.775.213a10.436,10.436,0,0,1,1.261,1.969c.424.769.63.488,1.129,1.05s-.565,4.7-.565,6.391-4.146,3.3-5.479,3.651-4.7-.562-5.893-1.059-3.511-.839-5.547-1.889-.7-.5-2.738-.775-1.129-.277-1.619-.844a13.717,13.717,0,0,0-1.758-1.9c-1.4-1.332-.631,0-1.054.284s.565,1.611.565,1.611a11.866,11.866,0,0,1-1.193-.072c-.633-.064-.209.072-.633.426s-.066.349.492.91,1.619,0,2.669,0,.417.145,1.125,1.4.14.42.98.7a6.006,6.006,0,0,1,2.109,1.2c.91.7.773,1.472,1.2,2.456s0,.633-.637,2.177-.07.637.073,1.334.492.841.563,1.687-.49,1.615-.424,2.105,1.125,1.332,2.6,1.332,1.266-.136,1.052,1.685,1.052.356,3.234,1.687,1.189.281,1.681-.347.418-1.69-.769-2.458a15.888,15.888,0,0,1-3.229-2.252c-1.549-1.4-1.195-1.12.206-2.179s.7-.98.984-1.54.419,0,1.334.418.422.354,1.474,1.121.351.71,0,1.549.418.56,1.619,0,.556-.143,1.406-.143a5.088,5.088,0,0,1,2.313.773c.841.42,2.88,1.9,3.581,2.252s1.968.277,1.055-.844-2.881-1.266-4.073-4.007-.563-2.949.209-4.352.494-.418,3.652-2.669.986-.989,1.545-2.111.98-.206,1.751-.347a2.114,2.114,0,0,1,1.479.284c.349.138-.073.418.562,1.824s.767.134.912.488.418.633.63-.066a17.582,17.582,0,0,0,.844-3.86c0-1.127.424-1.832-.283-2.744s-1.263-1.261-1.263-1.755.349-.841.628-1.474.286-.912.356-3.443-.356-2.527-1.191-3.443-.633-.486-.846-1.116.213-.776.492-.844.417.141,1.683,1.2.984.066,2.881.206,1.05.141,1.47.558,2.808,2.535,2.887,4.216-1.2,2.533-2.252,1.967-.914.072-1.687.633-.63.56-.352.773a3.145,3.145,0,0,1,1.125,2.454c0,1.41.422,1.261,1.547,1.828s1.685,0,2.733-.567.85-.277,1.27-1.47-.143-2.458.138-3.3.563-.143,2.457.351.07-.422-.143-1.828.356-.486,1.125-.486.424.349,1.824-.7,1.545-2.173,2.461-2.882,2.177-.279,2.665-.42a1.6,1.6,0,0,1,1.408.349c.56.354.56.354.912-.068s-.139-.848.072-1.9.837-.563,1.544-.912a14.732,14.732,0,0,0,1.542-1.123c.844-.56.562.417.562.842a22.636,22.636,0,0,1,.492,2.458c.068,1.195-1.824-.349-2.316,1.962a4.683,4.683,0,0,1-2.806,3.236c-.349.207-.215.628.143,1.334s-.219,1.687,1.894.628a6.5,6.5,0,0,0,2.667-1.824c.984-.916,1.125-2.737,1.545-4s.769-1.338,2.39-2.318,1.749-.778,4.141-.5.7.072,1.89-.49,2.111-1.751,4.212-1.683-.068,1.615-.42,2.245-.066,2.459.984,2.527,1.2-1.47,1.2-1.755.49-.912,1.613-1.125,1.191-.277,1.474-.775-.842-1.889-1.617-3.157,0-2.177.143-3.3.7.072.91.072a19.054,19.054,0,0,1,2.041-.56c1.679-.356,1.331.134,2.316.275s2.239,1.123,3.3,1.755,1.9.426,2.246.844.5,1.055.914.912,1.406.143,3.23,1.2.207.7.422,1.4.567.141,1.9.141.694,0,.912.842-.145.776.207,1.406.84,1.195,1.472,1.195.986,1.123.986,1.964.563.068,1.477-2.034.914-3.586.562-3.515-1.2,1.125-2.179.283.773-3.72.773-4.708-1.055-.206-1.894-1.54-1.756,0-2.25.07-.066-2.179.141-2.527.63.064.98-.284.143-.628-.134-1.054,0-1.052.206-1.609,1.127-2.459.072-2.812-1.264-1.193-1.2-2.456.284-.7,2.037-2.6.844-1.544,2.182-3.86,2.1-8.92,2.812-10.254c.69-1.331,1.118-.771,1.677-.073s1.9-.136,3.585.7,3.715.987,4.139,1.336-.424,1.9-.7,2.669-.283,4.144-.846,5.972-.909,1.332-1.2,1.755.075,1.477.213,2.6,1.195,1.05,1.762,2.248.068.912.633,3.159-.29,1.4-.426,2.951-.56,8.705-.49,9.2,1.821,2.874,2.526,4.208.281.989,0,1.619a11.889,11.889,0,0,0-.275,2.944c-.147,1.621-.492,1.334-2.114,4.146s-4.139,2.382-5.9,2.454-6.807.284-7.8,1.129.5,1.747,1.547,1.822,1.472-.984,2.6-1.687,1.061.912,1.479,1.406,1.193.42,3.017,1.683.842-.213,3.089-.775,1.053.7,1.613,2.252a7.963,7.963,0,0,0,2.669,2.946,6.518,6.518,0,0,0-.07-1.54c-.136-.774-.846-1.34-1.053-3.239s-.982-.833-1.123-1.327.914-1.542,1.758-2.527,1.889-1.758,1.964-2.454A23.079,23.079,0,0,1,723.4,442c.771-1.121-.773-3.295-.841-5.051s.417-1.474.986-1.964,1.259-.354,2.1-.912,2.248.422,2.8,1.615a8.908,8.908,0,0,1,1.338,4c.14,2.037-.558,2.6-.558,3.515s1.54,3.161,1.819,2.814-.072-2.465-.56-3.658.281-1.265.908-1.611,1.057-2.39-.349-4.22-.84-1.47-1.189-2.6-.844-.767-2.039-.98-2.876-.98-3.722-.422a1.75,1.75,0,0,1-1.964.279c-.631-.279-.916.143-1.619-.068s-1.052-4.563-.631-6.6a9.777,9.777,0,0,1,1.334-3.863c.985-1.9-.565-3.722-1.265-5.334a7.85,7.85,0,0,1-.56-3.586,4.565,4.565,0,0,1,.7-2.171,36,36,0,0,0,2.173-3.863c.567-1.408,1.059-4.706,1.619-5.546s.98.284.98,1.052-.068,6.741-.494,7.725.075,1.611.288,2.6-.354,2.105-.213,2.808,1.755.7,3.159.7a9.423,9.423,0,0,1,3.584.56c1.05.422.629,1.687,1.331,1.755a.99.99,0,0,0,1.121-.767c.07-.356-.843-.565-1.336-1.129s-.626-1.751-1.048-2.177-2.527-.771-3.368-1.683-.775-1.268-.639-2.454.639-1.125,1.69-1.2.914.49,2.248.775.837-.494,1.261-.987-.492-.984-.916-1.261.073-.492.492-.7a12.848,12.848,0,0,1,2.246-.424c.776-.138.986.281,1.27.565a15.678,15.678,0,0,0,1.472,1.05s1.373.1,1.9.215,1.263.943,1.79,2.208a2.149,2.149,0,0,0,1.582,1.476c.314.1,1.47-.844,2.843-.426s-.112,2.636-.947,3.168a6.2,6.2,0,0,0-1.9,1.786c-.527.738.213,2.318-.637,4.423s-.945,2.006-1.576,2.419-.316,1.164.738,1.057.949-.426,3.265,1.158,1.679,3.79,2.946,4.317,3.265-.844,4.21-.844,1.059,2.847,1.059,3.584.106,2.214.842,2.111.1-4.113-.319-5.589a2.483,2.483,0,0,0-1.788-2,2.716,2.716,0,0,0-2.212.631c-.736.529-1.683.316-2.527-1.683s-.316-2.744.42-3.37a3.129,3.129,0,0,0,.734-3.052,11.417,11.417,0,0,1-.839-4.425c0-1.584.633-1.266.418-2.74s-.734-1.683-1.16-1.9a3.04,3.04,0,0,1-1.679-1.9c-.426-1.265-.637-1.371-.637-2.105s-.732-.846-1.474-.953-2.21-.736-2.63-.736-.314-.31-.527-1.578a2.934,2.934,0,0,1,.316-2.215,3.977,3.977,0,0,0,.318-1.991c0-1.059-1.266-2.217-1.054-3.164s.53-.53,1.054-1.059.525-2,.841-2,2.527-.213,3.575-.213,2.008.532,3.9.426,1.266-.525,2.111-.525a7.322,7.322,0,0,0,3.052,0c1.479-.422,1.582-.631,1.79-.106s-.523,1.158-.947,1.474-1.371.842-1.153,1.158.628-.1,1.153-.215a7.593,7.593,0,0,0,2.847-1.259c.419-.527-.112-1.577-.74-2.21a4.426,4.426,0,0,1-1.16-1.9,4.162,4.162,0,0,1-.31-1.261s-2.008-.846-2.008-1.584.429-.213.74-.42a2.021,2.021,0,0,1,1.789.318c.741.418,1.164.1.844-.318a2.318,2.318,0,0,0-1.162-.844c-.527-.213-.947-1.05-1.472-1.474s-.31-.734.106-1.054,1.055.418,2.424.947.525-1.053.835-2.212.424-.631,1.059-.841.213-.947,0-1.265-1.687-.424-2.105-.628.314-.53,2.105-.53a2.631,2.631,0,0,0,2.634-1.373c.633-.732,1.577-1.47,2.1-1.367s.844-.1,1.476-.736a3.447,3.447,0,0,1,2.421-.951,13.924,13.924,0,0,0,2.955-.943c.42-.1,3.366-.736,4.108-.949s.316-1.158.316-1.158-1.58,0-2-.529.53-1.367,1.16-1.577a6.6,6.6,0,0,1,2.636-1.057c2.109-.415,1.476.426,3.368.426s1.052.631,1.16,1.371-.426.943-.949,1.679.106,1.057.631,1.266.418-1.266,1.158-1.9.736,1.052.841,1.58.529-.422.843-1.162.637-.943,1.582-1.05,1.791-1.158,2.951-2.63,1.263-.637,2.109,0,.314,4,.314,5.055.947.525,1.371-.635a7.733,7.733,0,0,0-.217-4.42c-.42-.74-2.314-1.584-2.212-2.221s.951-.312,1.685-.525a8.594,8.594,0,0,1,4.427.525c1.156.637,1.156.213,1.046-.525s-.943-.951-1.257-1.263.528-.945.528-1.681-.214-.525-.848-.844-.1-.741.106-2.737.424-1.371,1.268-2.636.947-1.474,1.05-2a3.835,3.835,0,0,1,1.156-1.58,7.112,7.112,0,0,1,3.476-1.153c1.263-.106.633-.321,1.685-.846a1.93,1.93,0,0,1,2.527.422c.321.63.949,0,1.371.63s-.211,1.58-.839,2.215-2.847,1.05-3.584,3.368,0,.424.42,0,2.953-1.053,2.529.318.321,0,1.892.106,1.9.206,2.215.418.631.949.312,2.322-1.155,2.313-1.366,3.786.316.319.949,0a4.748,4.748,0,0,0,2-1.894c.626-1.05.839-1.16,1.158-1.793s.523-.738,1.681-.943a9.1,9.1,0,0,1,4.741,1.369c.841.63,1.053-.426,1.791-1.055s1.156.207,1.9.417a4.093,4.093,0,0,1,1.9,2.426c.2.841-.211,4.108,1.575,4.948s1.371,0,1.582.317a12.269,12.269,0,0,1,.319,2.634,6.78,6.78,0,0,1-.319,3.476c-.527,1.154-1.053.209-1.582-.209s-.42.1-.42.525.534.949,1.158,2,.844.635.74,1.268-.74,1.156-.949,1.9-3.476,3.366-4.952,4.317-4.418,2.421-5.576,4.741a11.454,11.454,0,0,0-1.481,4.107c-.213,1.263-2.1,2.527-3.373,3.685-1.257,1.16-1.577.844-3.471,1.474s-.947.738-1.263,2.628-5.794,5.271-5.794,5.271.736-.213,2.107-.633a8.072,8.072,0,0,0,3.373-2.314,5.493,5.493,0,0,1,1.788-1.477c.738-.426,0-.947.206-1.582s2.434-1.052,3.9-.629c1.479.424,1.166-.734,2.219-1.054s.419-.953,1.054-1.793,1.053-.1,1.476.426.841-.106,1.578-.53,1.16-.943.945-1.681-1.472.209-2.1.417-1.688-1.156-.319-2.843,2,0,3.056.215.945-1.158,1.263-2,.947-.1.527,1.366.527,1.789,1.9,2a2.231,2.231,0,0,0,1.894-.312,1.953,1.953,0,0,0,.842-1.584c0-1.05.841.316,1.052,1.477a5.614,5.614,0,0,1-.736,3.161c-.422,1.05.1,2.634.63,4.1s1.055-.942,1.578-1.788a1.971,1.971,0,0,0-.312-2.212,2.185,2.185,0,0,1-.53-1.582c0-.736.53-.736.951-1.05s.74-.319,2.953-.426,1.681-.833,2.948-.943,1.055,0,2.524.631,2.214-.209,3.373.418.213,1.69-.106,2.531.209,1.477,1.052,2.632,1.055.738,2.213,1.687.633-.11,1.16-.841,1.371.1,1.685.418a1.641,1.641,0,0,0,1.578.523c.63-.211,2.736.108,4.739,1.582s3.37,1.266,5.273,2.113c1.887.837,2.836,3.579,5.156,6.418s1.054,3.161,1.685,2.951.11-2.318-.527-3.476-.947-1.79,0-4.113,1.261.953,1.79,1.69,1.788,2.742,2.527,4.109a22.569,22.569,0,0,0,3.159,3.689s1.162,1.052,2.107,1.889.633.529.951.844a12.164,12.164,0,0,1,.947,1.789c.531.945,0,0,.738-.841s.947-2.318,1.367-2.63.211-.527-.42-1.584.53-3.054,1.263-4.737.842-.951,1.476-.844-.209,1.476-.209,2.109.1.316.949,1.362.631,1.584,1.265,2.217,1.79-.316,3.047-.947.633-1.9,1.055-2.423,2.636.628,4.952,2,1.791,2.105,2.313,1.9,0-1.584.639-2.425.841-.209,1.577,0a6.839,6.839,0,0,1,2,.949c.842.527.947-.108,1.476-.42s-1.16-1.375-1.79-2.637,0-1.683.419-2.841,1.057-.953,1.057-1.687,0,0-.74-.106-.318,0-.949,0-.629,0-.846-.424.529-1.154,1.265-2.206,1.371-.106,2.636-.527.53-.734.1-1.687.426-.734.949-.635a14.829,14.829,0,0,1,2.845.635c1.052.422,4.634.314,6.842.215a3.453,3.453,0,0,1,3.166,1.053c.736.525,2,1.261,1.892,1.683s-.953-.106-1.476-.312a7.371,7.371,0,0,0-2.32-.637,1.08,1.08,0,0,0-1.052,1.158,2.4,2.4,0,0,0,.74,1.683c.525.529,1.053.215,1.784.215a7.281,7.281,0,0,1,2.213-.108c1.055.211.11.949-.2,1.687s-.532.631-1.27.316-.741.418-1.265.633a4.266,4.266,0,0,0-1.681,1.685c-.211.527,1.263,1.158,2,1.158s1.156-.951,2-1.789a31.351,31.351,0,0,0,2.529-2.843c.629-.846,1.158-.953,3.157-.953s1.478.215,2.636.738,2.417,3.161,2.105,3.794-.846.213-2-.633-1.053,1.268-.949,1.793,1.789.73,3.366.945.53,1.263,1.369,1.9.846-.1,1.268-.418,1.9,1.681,2.212,2.314-.1,1.16-.1,1.685,2.212.422,2.737.422a6.183,6.183,0,0,0,2.733-1.156c1.377-.841,2.111.418,2.746.839a1.763,1.763,0,0,0,2-.314c.527-.422,4.636-.213,5.374-.213s4,1.158,4.95,3.054,0,4.533-.529,6.323,2.533,4.84,2.946,5.266,2.535-.844,2.744-1.263a9.367,9.367,0,0,1,1.261-2.111,3.4,3.4,0,0,1,2.949-1.05c1.9,0,1.9-.422,1.9-.422s.312-.1,1.055,1.263,1.052.11,2.733.316,1.264.527,3.052.846,2.632-2.109,2.632-2.109,1.267,1.476,1.267,2.109a2.338,2.338,0,0,0,1.58,1.9c.945.312.525,0,1.476.525s.523,1.687,1.156,2.527,1.791.1,2.948-.213.738-1.788.85-3.685-.321-1.582-1.9-2.425.209-1.261.835-2.208-.2-.844-.521-1.687.635-.206,2.32.213,1.048.842,4.531,1.58,1.05,1.162,2,1.367-.211-.736-.417-1.474.518-.217.942-.1a16.116,16.116,0,0,1,2.735.947c1.477.63,1.584,0,3.052,0,1.487,0,.743.527,1.265,1.261s1.166.738,2,1.584,1.158.415,1.689.1.731-.312,1.577.213a7.251,7.251,0,0,1,2.109,2.634c.42.839,1.472.426,2.111.426s1.569.945,2.314,2.309.419.738,1.151,1.059a3.039,3.039,0,0,1,1.165.626c.525.428,2.845,3.372,4.528,3.581s2.742,1.69,3.579,4.214,0,2.109,0,3.161,1.586,3.159,2.1,3.48c.534.312.641-.424.534-.949s-.74-2.531-.74-3.054.846-.635,1.584-.635a6.706,6.706,0,0,1,1.47,0c.951.106.527,1.263.951,1.263s.519-.628.839-.951,1.481.323,1.791.534a3.2,3.2,0,0,1,1.053,1.263c.314.633,1.894,2.105,2.843,3.366s1.476.846,1.476,1.793-1.367.525-1.685.844-.108.949-1.16,1.261-.839-.209-1.259.211.42.842.1,1.369-1.367-.211-2.1-.734a1.3,1.3,0,0,0-1.791.207c-.53.422.626.842,1.158,1.158s.734.633.417,1.375a4.216,4.216,0,0,1-1.788,2c-.738.312-.106.518.213,1.154s.413.422.841.628a1.266,1.266,0,0,1,.424,1.478c-.211.529-1.062.529-1.69-.209s-.6-.6-1.015-.033-1.121.418-1.683-.426-.844-1.123-1.551-1.261a3.416,3.416,0,0,1-2.533-2.107,17.287,17.287,0,0,0-.552-2.67,1.914,1.914,0,0,0-1.96-1.542c-.995-.145-.852.418-1.832.7a2.537,2.537,0,0,1-2.25-.56,3.49,3.49,0,0,1-1.544-2.247c0-.7.7-.562.422-1.27s-.7-.418-1.267-.56-.418-.277-1.259.426-.422.422-.422,1.544.422,1.265.422,1.823-.283,1.547-.283,1.969a2.181,2.181,0,0,1-.844,1.687c-.56.277-.841,1.121-1.406,1.826s-1.96,1.54-2.8.982-2.178-1.544-3.017-1.544-3.48.419-3.161,1.263,1.683-.1,2.423,0,.943,1.788,2.731,2.632,1.268.316,1.687.628.745,2.955.745,4.427.523.945,1.156,2.105.734,1.9-1.477,3.581-1.79,0-2.632-.633-2.843,1.059-5.479,1.584-7.472,4.1-8.951,5.581-1.687,1.261-2.843,2.32a9.993,9.993,0,0,0-1.791,1.894c-1.052,1.261-1.265,2.636-2,2.636s-.628-.532-.945-1.481-.947-1.154-2.425-1.577-2.419.1-4,.945-3.685,2.949-4.427,2.425.106-1.054.317-2.109-.422-.839-.947-.626-.738,2-2.426,3.362-.209-.521-.417-1.153-1.582.316-2.425.418-.527.529-.319,2.318-1.47,2.111-2.524,3.476a8.38,8.38,0,0,0-1.263,4.634c0,1.053,1.365.1,1.892,0s.424.209.841.631,0,.734-1.367,2.208-1.048,2.742-1.681,3.373,1.373.107,2-.316.732,0,.842.628a4.046,4.046,0,0,1-.213,1.9c-.211.738-.951.629-1.578.422s-1.264.422-1.789,1.265a4.492,4.492,0,0,0,.1,3.685c.527,1.265-.949,2-.949,2s-1.586.738-2.32,1.158a4.812,4.812,0,0,0-2,1.892c-.633,1.053-.108,2.006-.108,2.736s-.842,1.165-2.318,1.478-.835.422-1.153,1.58-2,3.474-3.058,4.954-1.582,2.1-2.744,1.685-.2-.741-.2-2.322-.11-1.367-.426-2-.1-1.05-.1-2a14.616,14.616,0,0,0-1.584-6.846c-1.58-3.052-.844-5.791.1-9.267a12.475,12.475,0,0,1,2.953-5.482c.418-.525.319-1.05.319-2.208s2.21-1.371,3.783-2.208,1.692-1.8,2.425-2.322,1.375-1.474,3.372-4.532,1.791-1.683,2.637-2.311a41.748,41.748,0,0,0,3.68-3.8,4.3,4.3,0,0,1,2.322-1.261c.523-.106,1.048-1.266.736-2.105a3.323,3.323,0,0,1-.107-2c.107-.529.631-2.318.736-2.843s2.739-1.9,3.691-2.426-.528-1.265-1.582-1.265a6.325,6.325,0,0,0-3.794,1.265c-.839.846-.521,2.215-.839,4.111s0,.74-.741,1.364-1.265-.206-2.1,1.158-3.166,3.166-3.794,3.8-.736-.63-.628-1.683-1.061-.213-1.373-.635,0,0-.1-.418.209-1.059.839-1.69a.817.817,0,0,0,0-1.364c-.31-.316-.525.631-1.685.213a5.772,5.772,0,0,0-2.316-.529,14.443,14.443,0,0,0-3.474,1.259c-1.265.527-2.636,1.052-3.058,2.111s-.631,3.052-2,4.423-1.264.316-1.58.631a4.251,4.251,0,0,0-.949,2.737c0,1.369.736.949,1.479,1.261s1.264,1.059,1.05,1.477-1.371.428-2.845.312c-1.474-.1-.525-.418-.947-.839s-1.371.42-1.9.74a12.469,12.469,0,0,1-3.689.842c-.837,0-1.046-.108-1.364-.422s1.261-.74,1.788-.846.312-.206.1-.839-.631-.106-.631-.106-1.046-.525-1.366-.631a10.529,10.529,0,0,0-1.586-.106,3.258,3.258,0,0,1-1.788-.418c-1.055-.424-.525-.319-1.791-.213s.108.319,0,1.369-.841.213-1.365.631-.844,0-1.263-.314-.743,0-1.164.209a2.876,2.876,0,0,1-2.21.418c-1.264-.206-.528-.525-3.16-1.265s-1.472,0-3.157,0-2.849.846-4.318,1.265-1.055.426-1.9,1.687-2.107.846-2.951,2.105-.628.846-4,3.48-1.9,2.314-2.744,4.21-8.316,8.955-9.368,9.8,0,.626,1.683,1.575.736.108,1.16-.107a1.644,1.644,0,0,1,1.263-.209,1.426,1.426,0,0,1,.945,1.588,5.816,5.816,0,0,0-.213,1.569c0,.951.321.217,1.8.639s1.263-.114,1.786-.639.743,0,1.371-.521.211-.844.525-1.371,1.582-.1,2.426,0,.841.947,2.632,2.63,1.16.42,1.05,1.584-.418.631-.738.631-1.683.213-1.683.213a2.805,2.805,0,0,0,.633.839,3.4,3.4,0,0,1,1.58,1.789c.525,1.265-.106,1.789-.734,3.058s-.108,1.366-.635,2.421-.631,5.688-.736,8.531-1.369,3.891-1.9,5.368a42.723,42.723,0,0,1-2,4.851c-1.259,2.735-5.688,6.205-7.261,7.683s-4.218,4.849-6.534,6.532-2.314-.106-4.522-.318-1.062-.527-1.9-.947-1.05.523-1.474,1.371-.209.945-.951,1.788a13.325,13.325,0,0,0-1.894,2.105,5.512,5.512,0,0,0-1.052,3.372c0,1.158-4.109,3.583-5.163,4.425s.209,2,.736,2.843,1.9,2.636,2.217,3.054a39.4,39.4,0,0,1,2.318,6.529c.1,1.055-1.479,2-2.742,2.215s-.74.209-1.053.42-2.628,1.158-3.895,1.687-.949,0-1.586-.318,0-1.369,0-2a10.589,10.589,0,0,0-.422-2.107,7.631,7.631,0,0,1,0-2.107c.106-.521,1.268-.841,1.584-1.261s-.209-1.054-.42-1.472a2.627,2.627,0,0,0-1.792-1.162,9.785,9.785,0,0,0-2.52.1c-.848,0-.642-1.261-.323-2.1s.848-.631.947-1.055,1.685.842-.316-2.425-1.05-.947-2.419-.841-3.794.318-4.533.949-3.263,2.212-3.683,2.1.42-1.052.631-1.894,1.892-3.474,1.892-4.425-1.05-1.158-1.683-.945-.841.633-1.683,1.265a17.1,17.1,0,0,1-2.735,1.683c-1.061.532-.114,1.055-1.375,2.843s-1.162.736-2.1.736a2.116,2.116,0,0,0-1.9,1.69c-.312.943.219,1.362,1.793,2.314s1.05,1.052,1.578,2,1.158.209,2.111,0,.422-.422,1.683-1.268.738-.1,2.107.743,1.158.1,2.949-.215.949.42.846,1.052a2.811,2.811,0,0,1-2.006,1.69,13.209,13.209,0,0,0-2.105.628c-.631.325-2,1.474-3.8,2.632s-1.261,1.477-1.054,2.636.422,1.156,1.692,1.578.841.318,1.154,1.375.74,2.946,1.479,3.788.944.63,1.578,1.158a1.751,1.751,0,0,1,.63,1.9c-.1.945-1.053.211-1.479,0s-.422.1-.422.628.11.949,1.057,1.27.215,1.577-.1,1.887-1.692.321-2.221.637.321,1.054.956,1.474a3.748,3.748,0,0,0,2.107.213,1.682,1.682,0,0,1,1.365,1.156c.1.633-.951,1.264-1.265,1.264s-.63,1.683-.943,1.9a5.508,5.508,0,0,0-1.692,1.789,7.43,7.43,0,0,1-.841,2.318c-.42.422-1.261,1.162-1.261,1.58s.209,1.158,0,1.577a5.615,5.615,0,0,1-1.586,2.208c-1.158,1.063-2.312,2.322-3.155,2.957s-2.742,1.788-4.214,3.05-1.263,1.162-2.423,1.264a11.99,11.99,0,0,0-3.579.953c-1.687.628-.841-.422-1.476-.74s-1.793.949-2.318,1.477-.947.523-2.32,1.156-6,1.257-7.261.74-2.425-.846-3.271-.321a37.885,37.885,0,0,0-4.632,4.533,6.887,6.887,0,0,0-1.053,3.577c0,1.371,1.795,3.265,2.213,3.687s1.9,1.894,3.473,3.159a12.088,12.088,0,0,1,3.375,4.739c.422,1.265-.1,2.946-.209,3.9s-.319,3.06-.428,4.533-1.158,1.472-1.892,2-2,.633-3.37,1.685-.844.1-1.164.945-1.155,1.588-3.678,3.164-1.167,0-1.689-.53.211-1.371.521-2.109-.413-.943-.629-1.259a5.153,5.153,0,0,0-2.634-1.371c-1.364-.319-1.261-.848-2.208-1.582s-.951-1.366-2.109-2.318a3.569,3.569,0,0,0-2.63-1.05c-.848,0-.633-1.05-1.373-1.789s-.841-.211-1.683,0-.107.525-.529,4.106a20.627,20.627,0,0,1-2,6.534,7.565,7.565,0,0,0,1.367.2,1.35,1.35,0,0,1,1.263.534,3.478,3.478,0,0,1,.63,2.525c0,1.158.217.947.949,2.421s0,0,1.266.209,1.153.424,2.107,1.367.74.848,2.111,2.21a6.9,6.9,0,0,1,1.786,4.324,10.477,10.477,0,0,0,.839,3.9c.523.837,1.053,1.052,1.586,1.685a1.693,1.693,0,0,1-1.063,2.524c-1.362.426-1.259-.628-2.836-1.784s-3.06-1.481-4.106-2.742-2.639-6.108-2.951-7.582a23.552,23.552,0,0,0-3.166-6.007c-1.044-1.474-2-1.263-2.135-2.1a10.277,10.277,0,0,1,.7-3.37c.281-.984,1.12-4.634.841-5.756a15.2,15.2,0,0,0-2.808-5.343c-1.265-1.266-.284-4.633-.56-5.614s-.846-2.524-1.69-2.386-2.806,1.69-3.649,2.25a2.041,2.041,0,0,1-1.685.275,7.112,7.112,0,0,1-2.107.288c-1.268,0-.136-1.41.426-2.111s.279-1.408.279-3.23-1.408-4.353-2.246-5.618-.7-.984-2.806-1.964-.989-1.4-1.688-3.234-.422-2.248-1.123-2.946-1.968-.562-2.252,0a4.847,4.847,0,0,1-2.243,2.388c-1.4.7-1.4.138-1.4.138a1.74,1.74,0,0,0-1.265.286c-.56.418-1.406-.286-1.968-.424s-.839.281-1.964,1.257c-1.123.993-.844.714-.986,1.555a6.372,6.372,0,0,1-2.665,3.227c-1.123.562-1.545.286-2.388.7a9.547,9.547,0,0,0-2.386,2.39c-.841.98-3.651,3.225-5.2,4.915s-.417.841-.982,1.4a3.081,3.081,0,0,1-2.246.978c-1.263.143-1.679.986-2.806,2.111s-.284,1.542-.284,2.382v5.2c0,1.545-.7,1.545-.7,2.245s.7,2.248.7,3.364-.418.852-2.665,1.549-.14.424-.285,1.27-.417.694-1.123.839-1.121.418-1.261.839-.05,2.063-.842,2.109-2.692-2.089-4.122-3.726M647.707,560.672c0,1.261,0,1.261,1.685,2.951s1.681,2.524,2.949,3.785.844,2.535,2.527,5.9.418,3.37,0,5.056-2.527,3.792-2.527,5.9,0,0,7.164,1.683,2.107.426,3.792,0,3.785-1.265,2.951-2.951-.848-2.95-.848-5.473-.418-2.107-.843-3.794,2.953-2.105,2.953-2.105-.844-2.949-2.111-3.364-3.366,1.255-4.214,0a34.289,34.289,0,0,1-2.1-4.638v-4.218s1.685-2.1,2.951-2.1a11.381,11.381,0,0,0,5.047-.418c2.531-.852-1.257-5.062-1.257-5.062s-3.79-2.525-5.9-2.525-4.634,2.525-8,4.638-2.949,1.683-3.792,2.949a32.444,32.444,0,0,0-.422,3.788m37.073-9.687a66.5,66.5,0,0,1-5.055,4.633c-1.265.842-.42,1.685-.42,4.21a5.964,5.964,0,0,0,2.1,4.214,5.216,5.216,0,0,0,3.792-1.683c1.265-1.687,2.1-4.636,1.687-6.327s.418-5.893.418-5.893ZM804.426,531.6c2.107-.418,3.368-1.687,6.319-3.37s4.633-5.055,6.321-8.428,1.683-5.475,1.683-8.422-1.265,1.687-2.527,3.366-1.688,4.218-4.214,8.43-9.693,7.165-9.693,7.165c-.417,1.259,0,1.685,2.111,1.259M609.37,486.947c0-1.683-2.1-3.792-3.37-5.475s-3.366,1.257-3.366,1.257,1.259,2.955,2.1,4.638,3.379,2.949,3.379,2.949a6.668,6.668,0,0,0,1.259-3.37" transform="translate(9.301 7.564)" fill="#deddca"/>
    <path id="Path_767" data-name="Path 767" d="M503.53,454.453c-1.9-.94-5.686,1.055-6.108,1.9s-.846,1.69-1.27.424-3.153-2.32-1.892-2.948,2.107-.846,2.525-1.9,2.318-.426.426-1.9-4.638,0-2.32-2.109.839-2.526,2.738-2.742,3.16-1.052,2.949-2.314-.842-1.683-.211-2.529.211-1.259,2.742-.631,2.737,1.059,2.944,1.687,3.16,1.268,1.9,2.527-1.9,1.477-1.9,3.583a40.523,40.523,0,0,1-.417,5.9,1.455,1.455,0,0,1-2.107,1.052" transform="translate(7.715 82.185)" fill="#deddca"/>
    <path id="Path_768" data-name="Path 768" d="M504.179,434c.984,0,.565-2.243,1.268-2.667s1.681-1.4,1.821,0a7.364,7.364,0,0,1,0,2.525c-.14.982-1.964,1.545.143,1.545s3.091-.42,3.507,0,1.689,1.545,1.408,2.531a7.341,7.341,0,0,1-1.408,2.524c-.56.707-1.4.422-.976,1.687s1.823,1.967,1.962,2.946-.422,1.545,1.263,3.094,2.25.279,3.234,2.524a29.3,29.3,0,0,1,1.123,2.812c.7,1.824.562,2.67,1.538,3.515s2.252.415,2.674,1.964-.844,1.962-1.266,2.942-1.826,1.268-.846,1.971,4.919,0,1.268,1.823-3.507,1.406-4.91,1.263,1.12-.418-1.408-.134-4.633.134-5.337.56,2.527-.56-1.121.846-2.386,1.4-3.654,1.4-2.109-.281-1.687-.984,2.388-1.4,2.388-1.4.842-2.388,2.667-1.683,2.949.56,2.814-.562-.563-.852-1.971-1.265-2.942-1.408-3.509-1.266-2.529,1.679-.7-.7,2.246-1.687,1.826-3.227a1.747,1.747,0,0,1,1.261-2.386c.707-.143,1.266.7,1.123-1.129a13.784,13.784,0,0,0-.281-2.667,3.9,3.9,0,0,0-.422-.842s-.281,1.125-.558-.98.138-2.948-.984-2.109-2.248,1.123-1.826.424a16.919,16.919,0,0,0,.984-2.39l-.138-3.232s0,1.406-1.408.56-.844-1.263-.984-1.681,1.268,1.544-.138-.42-1.545-1.966-1.828-3.23-1.823-.7-.558-1.687a4.073,4.073,0,0,0,1.544-2.1c.277-.565,1.826-.707,2.1-.707" transform="translate(12.82 74.834)" fill="#deddca"/>
    <path id="Path_769" data-name="Path 769" d="M795.092,405.965c2.526-1.685,6.314-2.946,7.158-5.9s5.479-8.424,9.267-9.689,2.955-3.373,7.591-3.373,12.633,2.105,13.9,2.951-.839.422,9.691,2.951,11.8,1.685,17.276,4.21,9.687,5.056,13.907,5.475c4.2.426,5.893,2.527,8.421-.839s1.683-3.792,3.37-4.636,8.843-1.69,8.843-1.69,5.9,1.69,8,2.953,7.165-.418,8.428-.418,2.109-1.683,5.894.418c3.8,2.111,12.225,3.373,14.33,4.212s5.471-.419,5.471,2.527-1.266,2.953-1.685,4.214,10.537,3.37,10.537,3.37,1.679-2.948,2.524.422-.844,7.162,2.107,5.053,2.946-7.58,2.946-7.58,11.8-3.792,12.644-2.525-3.371,2.105,2.529,2.105,8.843-1.687,8.843-1.687,3.373-2.946,3.79.842a9.488,9.488,0,0,0,2.11,5.479l2.109-2.109a33.854,33.854,0,0,0,2.1-4.212c.844-2.107-.42-4.212,1.263-5.473s.418-4.218,3.792-4.218.843-5.049,4.212,1.69,3.792-4.212,5.9,1.263,2.953,7.58,2.953,8.845-1.69,2.105.422,2.527.833.844,3.781-2.527,5.9-7.162,5.9-8.424,4.21-4.638,5.058-2.107-2.951,2.526,1.259,10.111-3.366,10.955-5.058,11.792-3.368-2.522-5.475.426-5.469,5.475-6.743,4.631a7.626,7.626,0,0,0-5.9-1.683c-2.946.422-5.055,2.105-2.527,2.527s3.792,1.265,6.321,1.265,2.525-1.265,2.525,0,.428.844,0,2.946-2.525,2.109-4.218,2.955c-1.676.837-.837,2.105-3.364,2.105h-3.792c-2.529,0-8.422-1.268-7.16,0s9.687,2.944,9.687,2.944,2.953,1.689-.419,2.113-4.216,1.261-4.216,2.524a12.779,12.779,0,0,1-1.261,3.8s-5.055,5.049-4.208,7.158-1.69,8.848-.428,8.848,6.738-.422,6.738,1.681-.84,6.325.843,6.325.424-2.946,3.37,0,8.856,5.055,8.856,5.055-2.111-.422,2.094,1.683c4.221,2.107.852.42,4.221,2.107s4.625.844,6.743,2.524.837-2.1,1.677,3.8,2.533,7.162,2.959,9.689.837,2.529,2.1,2.529,2.1,2.107,2.527-3.373-2.527-9.685,0-10.95a9.245,9.245,0,0,0,4.633-7.591c0-2.946-3.786-5.468-2.533-10.524a48.66,48.66,0,0,0,1.69-10.957c0-2.1-.844-4.636-.419-5.893s1.261-3.372,1.261-3.372,1.681-4.212,2.942-2.107,6.328.422,6.328.422-1.694-4.636,2.938-.422c4.647,4.214,3.381,1.687,4.647,4.214a7.727,7.727,0,0,0,2.525,3.37c1.259,1.265.419,2.105.419,5.053s-3.364-.839.841,5.056,3.372,6.323,7.163,4.21,5.482-6.739,5.482-6.739,3.785-2.946,3.785-.841-.846.422.839,4.634,2.529,5.058,2.529,6.741-2.942-2.529.428,3.37,2.526,6.738,3.788,7.584,3.373,2.1,3.373,2.1,5.473.426,4.629,1.69-7.158,2.527-1.687,2.946,5.48.42,6.747,1.265,1.263.418,1.263,2.529.848,4.21-2.105,5.479-7.589,2.527-8.846,3.788,2.105,3.372-2.109,3.794-16.85-.841-16.85-.841l-1.265,1.681s-2.959,2.529-3.792,4.212-2.953,4.638-3.372,5.9,6.745-4.634,8.845-5.9,5.9-.841,5.9-.841l-1.683,4.632.844,2.529.839,3.373a7.66,7.66,0,0,0,4.214,2.524c2.52.426,6.734,2.524,5.053,2.949s-3.37,1.683-6.319,2.948-4.631,3.792-5.049,1.69,0-2.955,0-4.212v-1.266s-2.957,1.266-4.218,1.685-5.618,1.683-6.739,3.651-.562,0-1.689,2.812,1.4,2.806-.279,4.5a5.827,5.827,0,0,1-3.654,1.96c-1.118.279.29-2.245-4.5,1.688-4.763,3.928-6.453,5.615-6.453,6.74s-1.626-.741-2.245,1.122c-1.685,5.056-1.685,6.739-1.685,6.739s1.685,1.4,1.395,3.089-.554,1.406-1.96,3.649-1.123,2.81-3.651,4.214-3.092.843-3.654,1.966-3.085,2.806-3.085,6.743,1.408,6.74,1.683,8.43,1.69,12.068-.275,8.421-5.62-4.495-5.341-6.745.56-5.332-1.681-6.172-1.971-2.248-6.187-2.248h-7.018c-1.12,0-2.526-.846-2.806,0s-.558.281-1.967.841-7.863,2.248-10.106,2.248-4.219-2.248-5.056.565-2.814,2.524-4.216,7.863-.841,9.267-.841,12.916,4.21,8.142,7.3,8.424,5.06,2.25,8.149-.562,2.812-3.928,3.368-5.053,4.779-2.81,7.02-2.81,4.779-1.4,5.064,0-4.779,6.741-5.064,7.863-3.082,1.129-1.4,5.337,3.373,4.212,4.768,4.212,6.466-.281,6.466-.281a9.633,9.633,0,0,1,.558,1.692c.288,1.118,1.123.831,1.123,3.085s-3.368,6.459-.275,8.988,8.982,3.933,10.381,3.091,2.256-.286,3.941.562,5.334,5.332,5.618,1.683-3.935-3.37,1.121-4.779,7.584-4.208,8.423-4.208,3.933.284,3.933,1.687,1.125-.848,2.25-1.4,2.814-1.125,3.37,0,8.143,1.118,8.143,1.118,3.649,2.25,4.778,2.25,4.493-3.087,7.863,1.123,5.332,4.488,7.3,7.018,5.616,5.9,7.3,5.62-1.408-1.964,3.085-.283,6.178,1.4,8.146,3.654,1.408,3.37,2.252,4.212,6.176-.281,4.491,4.493-7.3,4.21-2.533,5.332,9.549,1.129,10.953,1.969,3.377,0,4.5,1.408,1.121,1.121,5.618,1.964a31.152,31.152,0,0,1,6.453,1.679c1.683.567,10.957,4.781,12.075,5.06s1.413,6.741,1.127,8.428-4.21,8.142-5.618,10.109-5.609,3.368-5.609,5.9.277,3.085-2.54,10.667-1.955,8.986-5.6,11.231-6.462,1.69-7.87,3.1,0,.275-3.091,1.966-.844-5.906-4.491,3.651-2.812,5.339-5.06,11.232-1.964,5.62-3.371,6.741-2.8,3.085-5.332,7.863,1.679,5.9-4.777,4.776-7.863-2.812-8.423-1.681,1.683,5.053,1.406,6.736,2.527,1.4-1.125,4.5-3.089,3.368-6.745,3.645-1.964-1.962-3.647.284-3.091,3.089-5.06,5.9-1.955-3.087-2.808,1.125c-.837,4.214.853,1.966.563,4.493s-.563,1.125-1.125,3.087-1.4,6.462-2.52,7.31-2.524.839-3.091,3.64-.842,2.814.279,3.939,3.087-.284,2.812,1.685-5.625,3.933-6.187,6.464-1.964,7.017-1.964,7.017a5.252,5.252,0,0,0,0,4.495c1.116,2.529,2.526,6.461,4.772,8.99a16.889,16.889,0,0,0,4.5,3.647s-3.368,1.41-5.051.839a18.045,18.045,0,0,0-3.935-1.118c-.843,0-.283,3.652-.843,0s.56-4.214-.556-4.772c-1.134-.567,0-3.654-1.406-3.654s0-2.527-1.408,0-.569,5.058-1.41,2.529,1.685-1.968-.841-4.214a30.886,30.886,0,0,1-3.366-3.093c-2.812-2.806-3.372-3.649-3.372-5.618s.56-4.21-.562-7.578,0-3.089-1.406-4.5-1.687-1.681-1.687-2.806-2.8-1.679.844-2.529l3.654-.837,1.96-5.625s.286-4.772.286-6.455-1.962-.842-2.531-4.214.569-.554.569-7.3c0-6.734-1.129-5.334-.285-7.861s1.683-3.93,2.247-5.9,1.12-3.373,2.533-9.269c1.4-5.9,1.114-2.808,1.4-8.711s-1.683-3.085.56-8.417a40.032,40.032,0,0,0,2.531-12.923c0-.841,0-12.359-4.774-14.889s-9.832-4.491-11.229-7.3-1.977-5.051-3.658-9.544a43.345,43.345,0,0,0-5.893-10.671c-1.411-1.692-3.658-1.692-4.218-4.778s-.839-4.5.283-5.339,1.121-1.121.562-5.053-1.964-5.055.846-7.026.56.563,4.21-3.372,3.933-5.049,3.933-7.578-2.032-5.682-2.032-6.741.206-2.105-1.055-2.316-2.529-1.692-4.007-.211.418,1.894-2.111,1.476a33.62,33.62,0,0,0-5.26-.635c-1.263,0-2.111,0-2.742-1.255s-2.737-2.955-3.79-2.955-1.683.839-1.683-1.477-1.9-4.636-2.948-5.9.631-2.1-1.892-2.1-8.015-.22-10.533-2.946c-2.535-2.74-1.053-3.164-4.429-3.588s-3.583-2.526-5.266-1.894-4.638,1.894-5.688,1.69-7.16-.215-9.48-3.377-6.318-1.472-8.635-3.788-3.577-2.527-4-7.16-2.522-3.8-5.057-8.85-1.9-6.315-5.682-8.637-2.109-.633-3.8-3.161-2.529-4-2.735-5.049-3.161-3.8-4.22-4.636-3.364-2.107-2.94,1.05,2.524,8,5.058,10.318,4.631,2.322,4.631,4.636,2.942,4.844,3.368,5.479,1.474,5.268-.426,2.944a26.389,26.389,0,0,0-4.209-4.208c-1.476-1.263,2.1,3.583-1.69-2.109a63.759,63.759,0,0,0-4.634-6.528s-2.522.631-2.522-.418,2.316.206.839-2.314-1.472.628-2.948-4.642.213-7.371-5.262-11.159-4.212-.844-7.8-4.636-4.21-4.212-4-5.475-1.265-1.474-2.525-5.269-1.059-5.893-2.32-10.741-3.162-4.214-1.47-9.689,4-6.317,2.314-9.693-2.955-5.684-2.955-5.684,0-1.687,1.69.631,1.887,2.527,2.74,0-.422-6.528-1.9-8.422-2.107-.426-5.475-4.008-6.743-6.951-6.743-8.215-2.314-2.735-2.742-3.579-1.681,3.161-2.1-3.579-5.893-8.634-6.951-10.324-2.529-8.208-6.108-8.208-4.429-2.324-7.588-5.06,2.111-2.738-5.264-4-6.316-.631-10.744-2.74-11.372-2.314-11.372-2.314a14.6,14.6,0,0,1-1.687,3.373c-1.059,1.468-1.685-1.059-5.477,3.577s-5.475,1.9-4-.426.426-2.524,2.527-4.416,4.214-1.272,2.527-2.742-4-1.894-4.845.633-2.318,1.683-4.42,6.319,5.686-.213-1.9,6.74-4,4.636-11.163,9.472c-7.163,4.854-13.272,7.382-9.052,4.64,4.2-2.737,3.785,2.32,6.943-4.845s2.951-7.582,4.21-9.687,4.007-1.689,1.272-2.109-.215-1.054-4.22-.418-4-.635-4.842-.635-.419,2.737-2.109-.841a55.941,55.941,0,0,0-4.21-7.16s-1.057,1.9-1.9.633-2.527-.633-3.581-5.269-4.844-2.948,0-5.475,9.056-4.632,11.592-9.27c2.518-4.634-.848-6.74-2.962-5.479s-.631.426-4.21,1.265-8.211.631-8.428-1.05c-.2-1.687,1.9,1.263-.2-1.687s-2.107-3.583-2.107-3.583a4.185,4.185,0,0,1,2.526-2.738c2.107-.842,2.316-1.892,4.427-1.472s1.048,1.263,3.577.629,3.161,2.529,4.844-.629,0-5.686-1.261-5.686a10.158,10.158,0,0,1-2.531,0,9.846,9.846,0,0,1-3.153-1.685,5.435,5.435,0,0,0-2.533-4.212c-2.524-1.69-3.162-1.268-3.162-2.113a29.243,29.243,0,0,1,.426-3.157" transform="translate(256.659 38.412)" fill="#deddca"/>
    <path id="Path_770" data-name="Path 770" d="M871.858,386.3c2.806-2.248,5.9-3.37,6.178-4.21s2.245-1.127-.567-3.656-3.928-3.368-3.928-4.21.281-1.4-.837-.848,1.96,3.093-1.129.569-2.247-.569-4.216-2.814-2.175-1.331-3.439-1.54-1.05,0-3.586,1.683c-2.52,1.687-4.629.631-4.629,3.164s.637,2.733.637,3.788a30.575,30.575,0,0,1-.842,4.214c-.215,1.052-.848,1.052-.848,3.373s-.629,3.153-.629,4a5.538,5.538,0,0,0,.629,2.314,15.846,15.846,0,0,0,1.476,2.74c.422.633,2.531,6.53,2.531,6.53s-.22,1.474,1.263.209,1.472-2.314,2.1-2.314a8.438,8.438,0,0,0,2.322,0c.839-.209,1.261-1.263,1.261-1.263a15.569,15.569,0,0,0,2.318-3.162,10.332,10.332,0,0,0,.631-2.74c.215-1.894-.846-2.527.633-3.579a24.273,24.273,0,0,0,2.669-2.247" transform="translate(308.526 23.81)" fill="#deddca"/>
    <path id="Path_771" data-name="Path 771" d="M873.978,376.889c-1.611,0-2.946,1.052-3.792,1.474s-3.37,1.9-3.583,2.737-1.053.844-1.692,1.265-.626.841-.207,1.683,1.263,1.268,0,2.318-2.733,2.107-1.683,2.742a6.331,6.331,0,0,1,2.1,1.472c1.057,1.055-.839.841,1.057,1.055a27,27,0,0,0,4,.209c1.683,0,4.418-.631,3.37.211s-4.423.63-5.893,2.522-4.427,2.955-.846,4.007,3.16,1.266,8,1.266,6.319-.213,6.951.42.633.844,0,1.894-2.307,1.265-4.214,1.265a28.014,28.014,0,0,0-4.842.419c-1.055.215-2.105-.419-3.159,1.055s-1.479,2.322.633,3.579,3.159-.206,4.842,1.265,1.053,6.951,5.058,6.951,7.367-2.314,10.109-3.792,3.786-3.159,5.055-3.788-.209-1.474,1.263-.635-2.531.635,3.164,1.69,7.161,2.314,8.632,1.47,2.107-1.9.633-2.316-2.737,0-2.951-1.683,1.477-2.105,2.114-2.105,3.779,1.474,1.89-1.061-1.89-4.627-2.736-4.84-6.114-1.687-5.69-4-.63-6.953-1.268-8.634-1.887-5.69-2.946-8.01.635-3.581-1.052-2.316a7.661,7.661,0,0,0-2.74,5.056c0,1.263.842,2.737-.633,4s-1.05.837-1.683-2.322-.635-3.794-1.894-4.423-1.055-1.894-2.107-1.052,2.32,1.681-1.054.844-3.581-1.263-4.212-1.263-3.577-1.268-4,.418,2.522,3.159,2.1,5.264.631,4.216-1.683.211-2.322-3.153-2.322-4-.213-2.522-.213-2.522Z" transform="translate(315.745 29.364)" fill="#deddca"/>
    <path id="Path_772" data-name="Path 772" d="M894,383.531c.041-.187-.1-.358-.15-.514-.642-1.934-1.584-1.542-2.166-3.487-.637-2.109-1.266-3.792-.637-4.423a12.105,12.105,0,0,1,2.526-1.477,3.855,3.855,0,0,0,3.379.631c2.307-.418,3.777-2.318,3.777-.418s-.624.631-.624,4.423-.846,3.16,0,3.786-.846-2.522,1.683,1.479,3.794,1.268,2.527,4.847-.211,3.579-1.69,4.631a23.749,23.749,0,0,0-2.52,1.687c-.631.631-2.322,1.05-2.953,1.685s-.413-.844-1.676-2.318-2.118-2.527-3.168-3.579-2.735-1.685-4-3.583-2.948-4-2.316-4.636-.42-1.47,1.265-1.261a6.2,6.2,0,0,1,3.581,1.47c1.052.844,2.735,2.951,3.162,1.057" transform="translate(335.117 26.723)" fill="#deddca"/>
    <path id="Path_773" data-name="Path 773" d="M896.255,379.821c.846-3.792.846-5.477,1.477-6.11s-1.052-.842,2.314-.842-.628-1.263,4.633-.418,7.793,2.105,6.954,3.37-1.263-1.057-2.32,3.788-2.525,5.269-3.583,5.269-2.1-1.052-2.731.637.42,3.786-.426,4.414,0,2.111-1.476.633-2.307-1.05-2.522-3.161.418-2.314-.844-4-1.052-1.474-1.265-2.318a5.8,5.8,0,0,1-.213-1.261" transform="translate(343.807 26.01)" fill="#deddca"/>
    <path id="Path_774" data-name="Path 774" d="M899.092,389.417c0-2.318-2.74-3.792,0-4.214s3.79-4.212,5.056-.42-1.052,2.107,2.1,5.475,4.429,4.216,3.794,5.06S909,394.259,907.308,397s-2.529,3.785-4.212,3.577a10.688,10.688,0,0,1-4.845-1.476c-1.689-1.053-2.109-.209-2.32-2.314s-.846.418-.631-3.368-.633-2.322.215-3.8,1.468-2.527,1.894-1.892a12.206,12.206,0,0,0,1.683,1.683" transform="translate(342.866 35.16)" fill="#deddca"/>
    <path id="Path_775" data-name="Path 775" d="M891.551,396.593c0-2.245,2.314-3.586,3.16-4s1.254,0,2.527,1.263-1.052-1.263,1.476,2.111,6.106,1.683,2.526,3.364-5.684-.206-6.745-.206-2.944.418-2.944-2.527" transform="translate(339.877 42.943)" fill="#deddca"/>
    <path id="Path_776" data-name="Path 776" d="M906.472,385.008c1.265-2.953,1.892-5.055,3.79-7.375s3.374-3.788,4.631-3.788,4.847-2.531,3.374,1.257-1.478,13.7-1.478,15.8,2.111,10.388,4.432,4.7-5.341-.844-1.266-6.6c.978-1.384-.842-1.687-1.055-4s-1.683-1.683.213-3.161a31.866,31.866,0,0,0,4.212-4.423s0-10.32,1.685-1.052.417,12.637,1.259,13.479,1.69,2.527,3.161.631-.631-3.372,1.477-1.9,2.955.422,4-.422,1.9-4.423,3.373-4.212,5.892.424,6.941,3.159-1.05,4.636.637,5.9a11.154,11.154,0,0,0,4.423,2.314,27.784,27.784,0,0,1,2.953.841c1.683.635,1.47-.418,2.316.848s-.633.626,1.476,2.738,2.1,5.266,3.159,5.9,2.737-2.531,3.153.842-1.472,8.211-.2,10.111.2,1.261,3.785,4.421,8.011,5.475,9.9,7.16,5.269,3.377,4.643,5.268-.844,2.322-2.531,3.372-4.845,2.109-5.058,2.738-7.158-7.375-7.158-7.375-.846-1.257-1.476.213-1.046,1.476-.844,2.737c.219,1.263-2.1,6.743,1.057,6.956s3.786-1.266,4.636.418.844,1.474.844,2.948-3.586-1.052-.426,3.8.631,6.951.631,6.951a8.379,8.379,0,0,1-3.586-2.109c-1.255-1.474-.205-2.105-2.52-2.105s-4.216.206-4.216.206-4.214-2.733-.63,0,10.533,7.8,10.533,7.8-4,2.529-5.268,1.9a11.793,11.793,0,0,1-3.161-2.105c-1.475-1.261-2.738-2.527-2.738-2.527s.85-1.476-.848-1.476c-1.678,0-5.469-2.948-5.469-2.948s-.844-1.474-1.687-2.738-1.061-.424-1.266-1.9,0-4.838-.633-4.838-1.889-1.265-2.946-.215-2.951,1.687-6.321,2.527-1.681,4.212-3.37.846-1.266-6.325-.415-6.532-1.268-.633,2.309-.215,2.955,1.685,4.216.422,1.472-.841,2.1-2.313-4.84,3.155.85-2.105,5.9-7.38,5.9-7.38,1.052-.209-2.324-6.316l-3.37-6.11s-.42-7.158-1.057-7.158,3.164,1.265-2.313-2.105-3.157-5.482-5.473-3.373-2.951,2.738-3.577,3.373c-.642.628,1.254-1.268-.642.628s-1.681,2.529-2.944,1.478-5.69-2.529-5.69-2.529l-3.16-1.69s-.417.637-1.05,1.69-1.687,0-2.944,0-.215,2.32-3.17-.211,1.272,1.468-3.572-3.788-1.478-2.742-2.74-5.48-1.057-1.685-1.69-4.21-1.05-4.427-1.05-4.427v-.843Z" transform="translate(351.287 26.302)" fill="#deddca"/>
    <path id="Path_777" data-name="Path 777" d="M956.972,449.059l-3.373,7.022-1.406,2.243a2.729,2.729,0,0,0-1.683,1.683,5.266,5.266,0,0,0-.279,2.817c0,.839-.283,1.118,2.239.839s2.536,0,3.381-.286a10.866,10.866,0,0,1,2.52-.279l3.933.565s-.56,0,0-1.685a24.049,24.049,0,0,1,2.252-4.214s.558-1.4-.282-.841,2.246.279-.839.556-3.658-.556-3.658-.556l-1.687-1.687s-.841,0-.556-1.406-.285.283.281-1.4.275-3.368-.843-3.368" transform="translate(388.837 90.249)" fill="#deddca"/>
    <path id="Path_778" data-name="Path 778" d="M913.886,408.38s-1.406-1.121-1.687.565A27.432,27.432,0,0,0,911.92,414c0,2.247,1.4,2.25,0,3.372s-1.971.284-1.971,2.248,1.134,2.241,1.134,2.241-.566.563,1.116,1.969,2.529,3.37,3.372,1.125.569-3.094.844-3.933a2.526,2.526,0,0,1,1.681-1.687c.848-.281,1.408-1.4,1.692,0s-.284,1.406.837,2.246a5.07,5.07,0,0,0,3.373.842c1.121,0,1.968,0,1.968-1.125s-.285-2.245-1.129-1.964-1.12,1.964-1.967,1.125l-.839-.841s.839.56.277-1.408.007-1.966-1.116-2.808-.283,0-1.689-1.681-3.089-2.814-3.364-4.219-1.131-1.96-2.254-1.122" transform="translate(355.246 55.939)" fill="#deddca"/>
    <path id="Path_779" data-name="Path 779" d="M941.736,341.024l-4.774,3.651a10.426,10.426,0,0,1-2.8,1.968c-1.408.563-2.529-.846-3.093,1.125s-1.127,1.964-1.127,3.085-.986-.42,1.332,2.953,3.162,2.522,4.216,4,.63,1.046,1.681,1.683,3.8,1.685,4.425.635.213-1.272,1.261-.635,3.168-1.055,3.168-1.055l2.951,3.37s1.048-.42-.428.848-5.9-2.113-6.539-1.268c-.624.842-.2,1.683-.624,2.316s-.419.635-2.1,1.266a15.686,15.686,0,0,1-2.535.839c-.846.213-2.316-1.052-1.052.844s-1.055,1.683,1.263,1.9,2.324-1.685,2.324-.43-.857.213,0,1.268c.835,1.054,2.522,1.054,2.522,1.687s-1.476,1.05-1.889,2.527-.217,2.107,1.046,3.161a7.044,7.044,0,0,0,3.164,1.894c1.468.42,2.309,2.107,2.309.42s-2.527-4.42,0-3.161,2.74-1.683,3.166.631.844,2.951,1.264,1.9-.846-1.265.419-1.059,2.527-1.889,2.733-1.042-.837,2.733.639,1.468,1.47-2.1,2.736-1.683-.844.633,2.529,1.052,4-.418,5.473,1.265,1.263.631,3.584,3.792-1.685,3.583,1.47,5.9,5.055,2.733,4.64,5.684-1.266,5.055.2,6.323a4.1,4.1,0,0,1,1.7,3.579c0,1.265,1.255,6.315,1.892,6.528s1.263,5.056.211,6.112-4.431,2.948-3.168,4.21,2.744,3.16,4.432.422.633-7.375,2.316-2.949-.422,3.792,2.313,5.268,2.948.839,2.948,3.366.22,3.16-2.527,1.9-6.945-3.166-5.049-.637,1.263,3.161,3.572,4,1.477-2.318,3.8,1.055,4.425,7.793,1.9,10.528,1.263,6.114.418,6.532-.837-.215-3.368,1.265-4.216,1.265-4,2.527a7.289,7.289,0,0,0,.844,2.314s-4.849-2.948,0,1.9-.426,5.688.624,6.112.207,3.155,1.264,4.842,2.527,1.9,2.527,2.949-.839,1.688,0,2.107,2.735-.63,2.529.418-2.309,3.8-1.685,4.427.846-.213,1.479.63-2.953,3.159-.633,4.427,2.735,0,3.366,1.265-1.265,2.105.424,3.366l1.685,1.266c1.053,1.265,0,1.265,2.316,2.1a7.65,7.65,0,0,0,4.423.215,3.32,3.32,0,0,1,1.055,1.472c.415,1.05-3.157,1.265.631,1.69s3.583-.213,3.786.418a5.516,5.516,0,0,1,.213,1.477s1.478-1.69,1.478-2.953-3.583.417,1.265-2.737,1.263-7.582,1.263-7.582-1.05,0,.207-1.059,3.161-2.1,3.375-3.786-.215-1.474.424-3.37a4.736,4.736,0,0,0,.419-2.525s-.635-2.744,0-3.8,4-6.106,6.112-5.475,2.311-.631,2.1-1.268,2.107-1.472,2.533-.415-2.744,5.049,1.887.207,4.643-4.007,5.69-5.9a16.615,16.615,0,0,0,1.683-4.42,6.529,6.529,0,0,1,1.483-2.949c1.054-1.476.841-3.581,2.309-2.735s.635,2.105,3.792,0,13.38-3.164,13.38-3.164v-102.3Z" transform="translate(371.772)" fill="#deddca"/>
    <path id="Path_780" data-name="Path 780" d="M913.7,507.31v-3.37s3.509-2.39,4.913-2.669,3.37.279,5.613,1.966,5.623,1.971,7.584,2.808,5.91,1.118,6.185,1.967a6.805,6.805,0,0,0,1.4,1.966s-3.651-.842-4.489,0-1.134,1.966-1.975,1.966-1.4.562-1.681-.842,1.968-.281-.277-1.4-3.941-1.964-3.941-1.964a13.686,13.686,0,0,0-3.082-1.689c-1.121-.275-3.091-.562-3.091-.562a5.857,5.857,0,0,0-1.4-1.4,2.134,2.134,0,0,0-2.529-.277c-.846.556-1.408.556-1.681,1.681s-.85,2.25-1.545,1.826" transform="translate(358.381 133.809)" fill="#deddca"/>
    <path id="Path_781" data-name="Path 781" d="M927.4,510.747c0-1.406,2.248,1.122,2.812-.283a5.484,5.484,0,0,0,.279-2.808,13.711,13.711,0,0,1,3.649-.844c1.413,0,3.1-.844,3.933-.283s1.692-.279,2.814,1.411-.562.841,1.96,2.237,1.4,1.971.283,1.685-4.493-.554-5.056.286-1.4.281-2.52.842-.569,0-3.1,0-5.057-1.129-5.057-2.245" transform="translate(369.821 138.098)" fill="#deddca"/>
    <path id="Path_782" data-name="Path 782" d="M939.394,509.794a1.941,1.941,0,0,1-1.134-1.125s2.814-.565,3.089.284-1.121,1.116-1.955.841" transform="translate(378.896 139.892)" fill="#deddca"/>
    <path id="Path_783" data-name="Path 783" d="M922.771,510.079c-.718-.714-1.127-1.127.839-1.127s2.8-.558,3.373.567,0,1.4-1.129,1.4-1.96.279-3.083-.842" transform="translate(365.462 140.167)" fill="#deddca"/>
    <path id="Path_784" data-name="Path 784" d="M751.6,570.178a11.966,11.966,0,0,1-1.4-3.368s0-1.127.839,0,2.254,1.96,3.368,3.083,3.375,3.649,3.375,3.649a22.07,22.07,0,0,1-3.649-1.118,10.719,10.719,0,0,1-2.533-2.247" transform="translate(221.793 188.197)" fill="#deddca"/>
    <path id="Path_785" data-name="Path 785" d="M770.575,564.711s-1.966-1.683-.562-2.243,2.52-.569,2.245.56-1.683,1.683-1.683,1.683" transform="translate(237.925 184.676)" fill="#deddca"/>
    <path id="Path_786" data-name="Path 786" d="M809.2,509.961c-1.151,0-.841-3.089-.841-3.089s.281-1.683,1.4-.562,1.683,1.973,1.408,2.814-1.408.837-1.966.837" transform="translate(270.352 137.754)" fill="#deddca"/>
    <path id="Path_787" data-name="Path 787" d="M729.985,547.635c-.846,0-1.406-.56-.567-1.121s1.125-.281,2.81-.842a6.839,6.839,0,0,0,3.089-2.248c.839-.846,3.656-1.967,2.533-.562s-3.091,2.245-3.939,3.372a5.127,5.127,0,0,1-3.652,2.243" transform="translate(204.089 168.051)" fill="#deddca"/>
    <path id="Path_788" data-name="Path 788" d="M599.981,401.368a26.544,26.544,0,0,1-6.323-1.685s-2.524,0-2.524-2.111a6.463,6.463,0,0,0-.842-3.366l-1.683-.848-3.375-5.475s0,.422,2.111-2.949,0-.42,2.1-3.368,0-3.372,3.375-3.79,5.475-3.792,4.634-.422-1.266,4.632-1.687,7.16,0,2.105.42,4.212,1.266,6.741,3.37,8.428,2.107,2.529.422,2.949" transform="translate(83.988 29.11)" fill="#deddca"/>
    <path id="Path_789" data-name="Path 789" d="M592.355,392.368c-1.265,0-4.208,0-2.529-2.531s2.109-2.525,2.949-5.471.842-1.687.842-4.216-.842-3.79.424-5.055,5.475-1.683,6.74-3.37-2.107-.418,4.634-3.792,9.267-3.79,11.374-6.741,7.584-6.321,9.265-6.321a2.73,2.73,0,0,1,2.535,3.792c-.85,2.109,1.678,3.8-4.216,7.158a37.56,37.56,0,0,1-10.113,4.218s.844-.842-1.683.841-4.214.846-4.214,2.111,1.263-.846,0,1.263-3.372,1.687-3.792,3.8,0,2.948-1.266,3.79-1.681.841-1.681,2.1-.42,4.212-.42,4.212a2.1,2.1,0,0,0-2.529,1.683c-.42,2.109-.844,2.531-2.955,2.953a4.706,4.706,0,0,1-3.364-.422" transform="translate(87.403 11.567)" fill="#deddca"/>
    <path id="Path_790" data-name="Path 790" d="M698.47,499.812s54.424,56.84,42.759,140.248" transform="translate(178.583 132.647)" fill="none" stroke="#a48b78" stroke-width="0.664"/>
    <path id="Path_791" data-name="Path 791" d="M698.47,507.257s304.514-68.041,424.031,73.426" transform="translate(178.583 125.202)" fill="none" stroke="#a48b78" stroke-width="0.664"/>
    <path id="Path_792" data-name="Path 792" d="M524.614,462.277s206.971-62.7,320.34,81.3" transform="translate(33.348 89.944)" fill="none" stroke="#a48b78" stroke-width="0.664"/>
    <path id="Path_793" data-name="Path 793" d="M801.286,523.767c-115.153-110.08-224.4-8.944-224.4-8.944" transform="translate(77.015 109.757)" fill="none" stroke="#a48b78" stroke-width="0.664"/>
    <path id="Path_794" data-name="Path 794" d="M839.523,567.163C750.255,415.132,531.114,420.486,531.114,420.486" transform="translate(38.778 66.361)" fill="none" stroke="#a48b78" stroke-width="0.664"/>
    <path id="Path_795" data-name="Path 795" d="M757.99,509.568c-75.614-54.474-129.276,18.7-129.276,18.7" transform="translate(120.31 123.956)" fill="none" stroke="#a48b78" stroke-width="0.664"/>
    <path id="Path_796" data-name="Path 796" d="M741.077,507.128c-50.988-41.107-93.525,6.6-93.525,6.6" transform="translate(136.047 124.805)" fill="none" stroke="#a48b78" stroke-width="0.454"/>
    <path id="Path_797" data-name="Path 797" d="M697.484,531.261c24.478-33.413,11.981-70.9,11.981-70.9" transform="translate(177.759 99.687)" fill="none" stroke="#a48b78" stroke-width="0.664"/>
    <path id="Path_798" data-name="Path 798" d="M697.484,548.73S820.878,404.386,992.43,447.477" transform="translate(177.759 82.218)" fill="none" stroke="#a48b78" stroke-width="0.664"/>
    <path id="Path_799" data-name="Path 799" d="M697.484,537.843s145.207-130.042,364.127-69.12" transform="translate(177.759 93.105)" fill="none" stroke="#a48b78" stroke-width="0.664"/>
    <path id="Path_800" data-name="Path 800" d="M698.47,499.812S818.705,611.79,807.04,695.2" transform="translate(178.583 132.647)" fill="none" stroke="#a48b78" stroke-width="0.664"/>
    <path id="Path_801" data-name="Path 801" d="M758.876,513.586c-75.614-54.474-131.222-15.459-131.222-15.459" transform="translate(119.425 119.937)" fill="none" stroke="#a48b78" stroke-width="0.664"/>
    <path id="Path_802" data-name="Path 802" d="M712.751,536.949c1.268-60.191-33.543-83.4-33.543-83.4" transform="translate(162.492 93.999)" fill="none" stroke="#a48b78" stroke-width="0.664"/>
    <path id="Path_803" data-name="Path 803" d="M712.345,566.607c16.443-86.971-32.651-148.562-32.651-148.562" transform="translate(162.898 64.341)" fill="none" stroke="#a48b78" stroke-width="0.664"/>
    <path id="Path_804" data-name="Path 804" d="M730,500.091s-57.609-12.11-69.274,71.3" transform="translate(147.052 132.368)" fill="none" stroke="#a48b78" stroke-width="0.664"/>
    <path id="Path_805" data-name="Path 805" d="M698.47,501.22s300.724-39.835,453.365,166.364" transform="translate(178.583 131.239)" fill="none" stroke="#a48b78" stroke-width="0.664"/>
    <path id="Path_806" data-name="Path 806" d="M698.47,522.238S1002.718,359.651,1194.7,625.173" transform="translate(178.583 110.221)" fill="none" stroke="#a48b78" stroke-width="0.664"/>
    <g id="Group_1839" data-name="Group 1839" transform="translate(774.367 530.017)" style="mix-blend-mode: hard-light;isolation: isolate">
      <g id="Group_1838" data-name="Group 1838">
        <g id="Group_1837" data-name="Group 1837" clip-path="url(#clip-path)">
          <path id="Path_807" data-name="Path 807" d="M642.646,543.564A99.435,99.435,0,1,1,742.081,643,99.436,99.436,0,0,1,642.646,543.564Z" transform="translate(-642.418 -443.891)" fill="none" stroke="#a48b78" stroke-linecap="round" stroke-width="0.25"/>
        </g>
      </g>
    </g>
    <g id="Group_1842" data-name="Group 1842" transform="translate(807.51 563.163)" style="mix-blend-mode: hard-light;isolation: isolate">
      <g id="Group_1841" data-name="Group 1841">
        <g id="Group_1840" data-name="Group 1840" clip-path="url(#clip-path-2)">
          <path id="Path_808" data-name="Path 808" d="M660.7,528.476a66.29,66.29,0,1,1,66.29,66.292A66.292,66.292,0,0,1,660.7,528.476Z" transform="translate(-660.475 -461.952)" fill="none" stroke="#a48b78" stroke-linecap="round" stroke-width="0.25"/>
        </g>
      </g>
    </g>
    <g id="Group_1845" data-name="Group 1845" transform="translate(829.608 585.261)" style="mix-blend-mode: hard-light;isolation: isolate">
      <g id="Group_1844" data-name="Group 1844">
        <g id="Group_1843" data-name="Group 1843" clip-path="url(#clip-path-3)">
          <path id="Path_809" data-name="Path 809" d="M672.744,518.419a44.194,44.194,0,1,1,44.194,44.194A44.195,44.195,0,0,1,672.744,518.419Z" transform="translate(-672.516 -473.992)" fill="none" stroke="#a48b78" stroke-linecap="round" stroke-width="0.25"/>
        </g>
      </g>
    </g>
    <g id="Group_1848" data-name="Group 1848" transform="translate(844.338 599.994)" style="mix-blend-mode: hard-light;isolation: isolate">
      <g id="Group_1847" data-name="Group 1847" transform="translate(0 0)">
        <g id="Group_1846" data-name="Group 1846" clip-path="url(#clip-path-4)">
          <path id="Path_810" data-name="Path 810" d="M680.771,511.713a29.462,29.462,0,1,1,29.461,29.463A29.463,29.463,0,0,1,680.771,511.713Z" transform="translate(-680.541 -482.019)" fill="none" stroke="#a48b78" stroke-linecap="round" stroke-width="0.25"/>
        </g>
      </g>
    </g>
    <g id="Group_1851" data-name="Group 1851" transform="translate(857.364 613.023)" style="mix-blend-mode: hard-light;isolation: isolate">
      <g id="Group_1850" data-name="Group 1850" transform="translate(0 0)">
        <g id="Group_1849" data-name="Group 1849" clip-path="url(#clip-path-5)">
          <circle id="Ellipse_28" data-name="Ellipse 28" cx="16.436" cy="16.436" r="16.436" transform="matrix(0.383, -0.924, 0.924, 0.383, -4.809, 25.56)" fill="none" stroke="#a48b78" stroke-linecap="round" stroke-width="0.25"/>
        </g>
      </g>
    </g>
    <path id="Path_811" data-name="Path 811" d="M642.646,543.564A99.435,99.435,0,1,1,742.081,643,99.436,99.436,0,0,1,642.646,543.564Z" transform="translate(131.949 86.125)" fill="none" stroke="#a48b78" stroke-width="1"/>
    <path id="Path_812" data-name="Path 812" d="M660.7,528.476a66.29,66.29,0,1,1,66.29,66.292A66.292,66.292,0,0,1,660.7,528.476Z" transform="translate(147.035 101.211)" fill="none" stroke="#a48b78" stroke-width="1"/>
    <path id="Path_813" data-name="Path 813" d="M672.744,518.419a44.194,44.194,0,1,1,44.194,44.194A44.195,44.195,0,0,1,672.744,518.419Z" transform="translate(157.092 111.269)" fill="none" stroke="#a48b78" stroke-width="1"/>
    <path id="Path_814" data-name="Path 814" d="M680.771,511.713a29.462,29.462,0,1,1,29.461,29.463A29.463,29.463,0,0,1,680.771,511.713Z" transform="translate(163.797 117.975)" fill="none" stroke="#a48b78" stroke-width="1"/>
    <circle id="Ellipse_29" data-name="Ellipse 29" cx="16.436" cy="16.436" r="16.436" transform="matrix(0.383, -0.924, 0.924, 0.383, 852.555, 638.583)" fill="none" stroke="#a48b78" stroke-width="1"/>
    <g id="Group_1853" data-name="Group 1853" transform="translate(1080.108 890.529)">
      <g id="Group_1852" data-name="Group 1852" clip-path="url(#clip-path-6)">
        <rect id="Rectangle_693" data-name="Rectangle 693" width="0.385" height="0.327" transform="matrix(0.866, -0.5, 0.5, 0.866, -0.115, 0.046)" fill="url(#linear-gradient)"/>
      </g>
    </g>
    <g id="Group_1855" data-name="Group 1855" transform="translate(1080.108 890.529)">
      <g id="Group_1854" data-name="Group 1854" clip-path="url(#clip-path-6)">
        <rect id="Rectangle_694" data-name="Rectangle 694" width="0.385" height="0.327" transform="translate(-0.115 0.046) rotate(-29.995)" fill="url(#linear-gradient-2)"/>
      </g>
    </g>
  </g>
</svg>
