<svg xmlns="http://www.w3.org/2000/svg" width="115.666" height="64" viewBox="0 0 115.666 64">
  <g id="Group_1834" data-name="Group 1834" transform="translate(-120.429 -161.865)">
    <path id="Path_719" data-name="Path 719" d="M146.954,220.514h6.85a151.311,151.311,0,0,0,.263-18.7s13.433-5.005,15.278-12.38c0,0-10.536,8.429-16.6,7.375,0,0-1.581-9.482-6.849-12.907,0,0,5.531,11.589,3.687,20.019,0,0-7.112-.789-10.273-5.531,0,0,6.585,8.956,10.011,10.009,0,0,.263,10.01-2.372,12.118" fill="#18853b"/>
    <path id="Path_720" data-name="Path 720" d="M143.109,200.582c-.071-.051-1.252-3.514-.115-5.969a5.228,5.228,0,0,1,4.235-2.921l-.073-.05a8.1,8.1,0,0,1,.115,5.968,5.71,5.71,0,0,1-4.233,2.921Z" fill="#639a35"/>
    <path id="Path_721" data-name="Path 721" d="M136.569,188.966a6.333,6.333,0,0,1-4.026-1.349,3.717,3.717,0,0,1-.946-3.534l-.051.037a5.767,5.767,0,0,1,4.026,1.348,4.071,4.071,0,0,1,.947,3.534Z" fill="#639a35"/>
    <path id="Path_722" data-name="Path 722" d="M170.053,186.176a6.324,6.324,0,0,1-2.694,3.28,3.711,3.711,0,0,1-3.639-.376l.015.062a5.772,5.772,0,0,1,2.695-3.282,4.068,4.068,0,0,1,3.639.376Z" fill="#639a35"/>
    <path id="Path_723" data-name="Path 723" d="M175.82,192.952a6.325,6.325,0,0,1-3.755,1.981,3.721,3.721,0,0,1-3.209-1.756l-.009.062a5.762,5.762,0,0,1,3.755-1.981,4.059,4.059,0,0,1,3.209,1.757Z" fill="#639a35"/>
    <path id="Path_724" data-name="Path 724" d="M171.28,198.857a6.325,6.325,0,0,1-4.243-.144,3.719,3.719,0,0,1-1.914-3.118l-.039.05a5.767,5.767,0,0,1,4.243.145,4.055,4.055,0,0,1,1.914,3.117Z" fill="#639a35"/>
    <path id="Path_725" data-name="Path 725" d="M139.144,208.834a6.309,6.309,0,0,1,1.1-4.1,3.718,3.718,0,0,1,3.471-1.154l-.039-.05a5.778,5.778,0,0,1-1.106,4.1,4.063,4.063,0,0,1-3.471,1.155Z" fill="#639a35"/>
    <path id="Path_726" data-name="Path 726" d="M128.89,198.42a6.321,6.321,0,0,1,3.661-2.147,3.711,3.711,0,0,1,3.284,1.609l.007-.063a5.767,5.767,0,0,1-3.661,2.148,4.068,4.068,0,0,1-3.285-1.609Z" fill="#639a35"/>
    <path id="Path_727" data-name="Path 727" d="M141.02,201.532c0,.09-2.336,3.024-5.083,3.4a5.346,5.346,0,0,1-4.859-2.037l0,.091a8.294,8.294,0,0,1,5.082-3.4,5.855,5.855,0,0,1,4.86,2.035Z" fill="#639a35"/>
    <path id="Path_728" data-name="Path 728" d="M155.413,202.354c.067-.059,3.8-.4,5.968,1.329a5.349,5.349,0,0,1,1.884,4.92l.068-.059a8.3,8.3,0,0,1-5.968-1.328,5.857,5.857,0,0,1-1.885-4.921Z" fill="#639a35"/>
    <path id="Path_729" data-name="Path 729" d="M161.521,200.155c.068-.059,3.8-.4,5.969,1.328a5.351,5.351,0,0,1,1.884,4.921l.068-.059a8.3,8.3,0,0,1-5.968-1.328,5.854,5.854,0,0,1-1.885-4.921Z" fill="#639a35"/>
    <path id="Path_730" data-name="Path 730" d="M140.439,196.162c-.058.069-3.694.975-6.1-.4a5.352,5.352,0,0,1-2.613-4.576l-.059.07a8.3,8.3,0,0,1,6.1.4,5.852,5.852,0,0,1,2.614,4.575Z" fill="#639a35"/>
    <path id="Path_731" data-name="Path 731" d="M146.609,189.992c-.058.07-3.694.975-6.1-.4a5.352,5.352,0,0,1-2.613-4.575l-.059.069a8.3,8.3,0,0,1,6.1.4,5.852,5.852,0,0,1,2.614,4.576Z" fill="#639a35"/>
    <path id="Path_732" data-name="Path 732" d="M146.609,183.4c-.058.069-3.694.974-6.1-.4a5.352,5.352,0,0,1-2.613-4.576l-.059.071a8.3,8.3,0,0,1,6.1.4,5.85,5.85,0,0,1,2.614,4.574Z" fill="#639a35"/>
    <path id="Path_733" data-name="Path 733" d="M148.676,181.1c-.088.02-3.525-1.474-4.6-4.026a5.354,5.354,0,0,1,.707-5.223l-.089.02a8.3,8.3,0,0,1,4.6,4.026,5.855,5.855,0,0,1-.706,5.223Z" fill="#639a35"/>
    <path id="Path_734" data-name="Path 734" d="M152.651,180.63c-.069-.058-.965-3.7.414-6.1a5.359,5.359,0,0,1,4.582-2.6l-.069-.058a8.3,8.3,0,0,1-.415,6.1,5.854,5.854,0,0,1-4.581,2.6Z" fill="#639a35"/>
    <path id="Path_735" data-name="Path 735" d="M158.572,179.136c-.037-.083.727-3.75,3.009-5.322a5.354,5.354,0,0,1,5.257-.367l-.037-.083a8.3,8.3,0,0,1-3.009,5.321,5.85,5.85,0,0,1-5.257.368Z" fill="#639a35"/>
    <path id="Path_736" data-name="Path 736" d="M163.215,183.779c-.037-.083.727-3.75,3.01-5.322a5.352,5.352,0,0,1,5.256-.367l-.037-.084a8.3,8.3,0,0,1-3.009,5.322,5.85,5.85,0,0,1-5.257.368Z" fill="#639a35"/>
    <path id="Path_737" data-name="Path 737" d="M151.881,188.268c-.058-.07-.32-3.807,1.45-5.94a5.358,5.358,0,0,1,4.959-1.784l-.059-.068a8.3,8.3,0,0,1-1.45,5.939,5.848,5.848,0,0,1-4.958,1.783Z" fill="#639a35"/>
    <path id="Path_738" data-name="Path 738" d="M155.974,194.56c-.058-.07-.32-3.807,1.449-5.94a5.355,5.355,0,0,1,4.96-1.783l-.059-.069a8.3,8.3,0,0,1-1.45,5.939,5.848,5.848,0,0,1-4.958,1.783Z" fill="#639a35"/>
    <path id="Path_739" data-name="Path 739" d="M224.388,213.138h1.565a8.64,8.64,0,1,0,0-17.279H214.347v0h-3.5v12.379H192.607V195.854H190.95v-.007h-7.062v3.177H189.1V224h3.5V211.669h18.238V224h3.5V198.451h11.481a6.048,6.048,0,1,1,0,12.1h-8.881l14.284,15.138h4.745Z" fill="#18853b"/>
    <path id="Path_740" data-name="Path 740" d="M236.1,225.688l-3.472-3.532H167.381a31.98,31.98,0,1,0-11.589,3.532Zm-110.2-31.823A26.535,26.535,0,1,1,152.429,220.4a26.535,26.535,0,0,1-26.535-26.534" fill="#18853b"/>
  </g>
</svg>
